<svg width="44" height="41" viewBox="0 0 44 41" fill="none" xmlns="http://www.w3.org/2000/svg">
<path d="M43.3752 28.5616C42.5439 30.2101 41.5266 31.7257 40.3551 33.0904C37.8263 36.0402 34.5856 38.282 30.9594 39.6134C30.9518 39.6164 30.9443 39.6195 30.9367 39.621C30.7402 39.6934 30.5422 39.7629 30.3427 39.8293C30.3351 39.8323 30.3275 39.8338 30.32 39.8368C30.2595 39.858 30.1976 39.8776 30.1356 39.8972C30.119 39.9033 30.1023 39.9078 30.0857 39.9138C29.9013 39.9727 29.7169 40.0301 29.531 40.0844C29.5068 40.092 29.4826 40.098 29.4584 40.1056C29.404 40.1222 29.3496 40.1373 29.2936 40.1524C29.2664 40.1599 29.2407 40.1674 29.2135 40.175C29.1153 40.2022 29.0185 40.2293 28.9203 40.255C28.8931 40.2626 28.8659 40.2701 28.8387 40.2761C28.7888 40.2897 28.7389 40.3018 28.689 40.3139C28.6528 40.3229 28.6165 40.332 28.5802 40.3411C28.5318 40.3531 28.485 40.3652 28.4366 40.3758C28.3928 40.3863 28.3489 40.3969 28.3066 40.406C28.2356 40.4226 28.1645 40.4392 28.0935 40.4543C28.0481 40.4648 28.0013 40.4754 27.9544 40.4845C27.9121 40.4935 27.8698 40.5026 27.8259 40.5116C27.7776 40.5222 27.7307 40.5313 27.6823 40.5418C27.643 40.5494 27.6037 40.5584 27.5644 40.566C27.4843 40.5811 27.4042 40.5977 27.3241 40.6128C27.2908 40.6188 27.2576 40.6249 27.2243 40.6309C27.1669 40.6415 27.111 40.652 27.055 40.6611C27.0203 40.6671 26.984 40.6732 26.9477 40.6792C26.8842 40.6898 26.8208 40.7003 26.7558 40.7109C26.7316 40.7154 26.7059 40.7185 26.6817 40.723C26.5955 40.7366 26.5094 40.7501 26.4232 40.7622C26.396 40.7668 26.3688 40.7698 26.3401 40.7743C26.2736 40.7834 26.2071 40.7924 26.1406 40.8015C26.1134 40.8045 26.0861 40.809 26.0589 40.812C25.876 40.8362 25.6931 40.8573 25.5087 40.877C25.4861 40.8785 25.4649 40.8815 25.4422 40.8845C25.3636 40.8921 25.285 40.8996 25.2064 40.9072C25.1913 40.9087 25.1762 40.9102 25.1596 40.9117C25.0628 40.9207 24.9661 40.9283 24.8693 40.9358C24.8648 40.9358 24.8618 40.9358 24.8573 40.9358C24.7651 40.9434 24.6744 40.9494 24.5822 40.9555C24.567 40.9555 24.5519 40.957 24.5368 40.9585C24.3403 40.9706 24.1423 40.9811 23.9443 40.9872C23.9413 40.9872 23.9367 40.9872 23.9337 40.9872C23.837 40.9902 23.7402 40.9932 23.642 40.9947C23.6359 40.9947 23.6299 40.9947 23.6238 40.9947C23.5226 40.9977 23.4198 40.9992 23.3185 40.9992C14.8281 41.0687 7.01042 36.3904 3.0668 28.8817C1.78954 26.4497 0.986909 23.8532 0.652857 21.2174C0.652857 21.2189 0.654368 21.2204 0.65588 21.2219C0.253808 18.0608 0.524375 14.8454 1.45247 11.7914C1.62478 11.2238 1.82128 10.6608 2.03895 10.1052C2.06313 10.0448 2.08731 9.98294 2.1115 9.92255C2.11906 9.90444 2.12661 9.88783 2.13266 9.86972C2.1508 9.82292 2.17045 9.77763 2.1901 9.73083C2.19766 9.71272 2.20522 9.6946 2.21277 9.67498C2.23696 9.61761 2.26114 9.56025 2.28533 9.50288C2.28684 9.49836 2.28835 9.49383 2.29137 9.49081C2.31707 9.42891 2.34428 9.36702 2.37149 9.30513C2.37904 9.28701 2.3866 9.27041 2.39416 9.2538C2.41381 9.20851 2.43497 9.16171 2.45613 9.11492C2.46369 9.0968 2.47276 9.07869 2.48032 9.06057C2.50601 9.0017 2.53322 8.94433 2.56043 8.88697C2.56194 8.88395 2.56345 8.88093 2.56496 8.87791C2.59368 8.81752 2.6224 8.75563 2.65112 8.69525C2.65868 8.67864 2.66775 8.66053 2.67531 8.64392C2.69798 8.59863 2.71914 8.55184 2.74181 8.50655C2.75088 8.48843 2.75844 8.47032 2.76751 8.45371C2.79623 8.39484 2.82495 8.33747 2.85367 8.2786C2.85367 8.27558 2.85518 8.27407 2.85669 8.27256C2.88692 8.21217 2.91715 8.15179 2.9489 8.09141C2.95797 8.0748 2.96552 8.0582 2.97459 8.04159C2.99727 7.9963 3.02145 7.95101 3.04564 7.90572C3.0547 7.88912 3.06377 7.871 3.07284 7.8544C3.10307 7.79552 3.13482 7.73816 3.16505 7.67928C3.16505 7.67777 3.16656 7.67627 3.16807 7.67476C3.19981 7.61437 3.23307 7.5555 3.26632 7.49511C3.27539 7.47851 3.28446 7.4619 3.29353 7.4453C3.31771 7.40001 3.34341 7.35623 3.36759 7.31094C3.37666 7.29434 3.38573 7.27773 3.39631 7.25962C3.42957 7.20074 3.46282 7.14187 3.49608 7.0845C3.49608 7.0845 3.49608 7.0845 3.49608 7.08299C3.52933 7.02412 3.5641 6.96524 3.59886 6.90637C3.60793 6.88976 3.61851 6.87316 3.62758 6.85655C3.65328 6.81277 3.68049 6.76748 3.70618 6.72371C3.71676 6.7071 3.72583 6.69049 3.73641 6.67389C3.77118 6.61501 3.80746 6.55765 3.84222 6.49878C3.8785 6.4399 3.91477 6.38254 3.95105 6.32366C3.96163 6.30706 3.97221 6.29045 3.98279 6.27384C4.01 6.23007 4.03721 6.1878 4.06593 6.14402C4.07651 6.12741 4.08709 6.11081 4.09767 6.0942C4.17174 5.97947 4.24732 5.86474 4.3244 5.75152C4.33499 5.73492 4.34708 5.71831 4.35766 5.7017C4.38638 5.65944 4.4151 5.61717 4.44382 5.5749C4.45591 5.55829 4.46649 5.54169 4.47858 5.52508C4.51788 5.46772 4.55718 5.41186 4.59648 5.35601C5.15122 21.385 21.3127 5.01936 25.1384 6.5335C26.3779 7.02412 27.1518 8.26501 27.046 9.59346C25.9788 14.3261 18.1944 29.638 28.5696 21.9873C28.6044 21.9526 28.6407 21.9179 28.6754 21.8846C28.6875 21.8726 28.6981 21.862 28.7102 21.8514C28.7329 21.8288 28.7555 21.8061 28.7797 21.785C28.7933 21.7714 28.8069 21.7593 28.822 21.7458C28.8417 21.7261 28.8629 21.7065 28.884 21.6884C28.8991 21.6748 28.9127 21.6612 28.9279 21.6476C28.9475 21.6295 28.9672 21.6114 28.9853 21.5933C29.0004 21.5797 29.0155 21.5661 29.0291 21.5525C29.0473 21.5359 29.0669 21.5178 29.0851 21.5012C29.1002 21.4876 29.1153 21.474 29.1289 21.4604C29.147 21.4438 29.1652 21.4287 29.1833 21.4121C29.1984 21.3986 29.2135 21.3865 29.2287 21.3729C29.2468 21.3578 29.2649 21.3427 29.2816 21.3276C29.2967 21.3155 29.3118 21.3019 29.3269 21.2899C29.3435 21.2748 29.3617 21.2597 29.3783 21.2461C29.3934 21.234 29.4085 21.2219 29.4221 21.2083C29.4388 21.1948 29.4554 21.1797 29.4735 21.1661C29.4886 21.154 29.5038 21.1419 29.5174 21.1298C29.534 21.1163 29.5506 21.1027 29.5672 21.0891C29.5824 21.077 29.596 21.0664 29.6111 21.0544C29.6277 21.0408 29.6443 21.0272 29.661 21.0151C29.6746 21.003 29.6897 20.9925 29.7033 20.9819C29.7199 20.9683 29.7365 20.9562 29.7532 20.9442C29.7668 20.9336 29.7804 20.923 29.794 20.9125C29.8106 20.9004 29.8272 20.8868 29.8439 20.8747C29.8575 20.8642 29.8711 20.8536 29.8847 20.8445C29.9013 20.8325 29.9179 20.8204 29.9345 20.8083C29.9481 20.7992 29.9602 20.7902 29.9723 20.7811C29.9905 20.7691 30.0071 20.757 30.0237 20.7449C30.0358 20.7358 30.0479 20.7283 30.06 20.7192C30.0781 20.7072 30.0963 20.6936 30.1144 20.6815C30.125 20.6739 30.1356 20.6664 30.1462 20.6604C30.1703 20.6438 30.1945 20.6287 30.2187 20.6121C30.2232 20.609 30.2278 20.606 30.2323 20.603C30.261 20.5849 30.2882 20.5668 30.317 20.5486C30.326 20.5426 30.3351 20.5381 30.3442 20.532C30.3623 20.52 30.382 20.5094 30.4001 20.4973C30.4107 20.4913 30.4213 20.4837 30.4334 20.4777C30.45 20.4671 30.4666 20.4581 30.4832 20.4475C30.4953 20.4415 30.5059 20.4339 30.518 20.4279C30.5331 20.4188 30.5482 20.4098 30.5633 20.4022C30.5754 20.3947 30.5875 20.3886 30.5981 20.3826C30.6132 20.375 30.6283 20.366 30.6419 20.3584C30.654 20.3524 30.6661 20.3464 30.6782 20.3388C30.6933 20.3313 30.7069 20.3237 30.7221 20.3162C30.7342 20.3101 30.7462 20.3041 30.7568 20.2981C30.7704 20.2905 30.7855 20.283 30.7991 20.2769C30.8112 20.2709 30.8218 20.2648 30.8339 20.2603C30.8475 20.2543 30.8611 20.2467 30.8747 20.2407C30.8868 20.2362 30.8989 20.2301 30.9095 20.2241C30.9231 20.218 30.9367 20.212 30.9503 20.206C30.9624 20.2014 30.973 20.1954 30.9851 20.1909C30.9987 20.1848 31.0123 20.1803 31.0244 20.1743C31.0365 20.1697 31.047 20.1652 31.0591 20.1607C31.0727 20.1546 31.0848 20.1501 31.0984 20.1456C31.109 20.1411 31.1211 20.1365 31.1317 20.1335C31.1453 20.129 31.1574 20.1229 31.171 20.1184C31.1816 20.1139 31.1937 20.1109 31.2042 20.1063C31.2178 20.1018 31.2299 20.0973 31.2435 20.0927C31.2541 20.0897 31.2647 20.0852 31.2753 20.0822C31.2889 20.0777 31.3025 20.0746 31.3146 20.0701C31.3252 20.0671 31.3357 20.0641 31.3448 20.061C31.3584 20.058 31.372 20.0535 31.3856 20.0505C31.3947 20.0475 31.4053 20.0444 31.4143 20.0429C31.4295 20.0384 31.4431 20.0354 31.4582 20.0324C31.4673 20.0309 31.4748 20.0278 31.4839 20.0263C31.502 20.0218 31.5186 20.0188 31.5368 20.0142C31.5413 20.0142 31.5459 20.0112 31.5504 20.0112C31.5731 20.0067 31.5942 20.0022 31.6169 19.9992C31.6229 19.9992 31.629 19.9976 31.635 19.9961C31.6501 19.9931 31.6668 19.9916 31.6819 19.9886C31.6894 19.9886 31.6985 19.9871 31.7061 19.9856C31.7197 19.9841 31.7318 19.9825 31.7454 19.981C31.7544 19.981 31.7635 19.9795 31.7726 19.978C31.7847 19.978 31.7968 19.975 31.8089 19.975C31.8179 19.975 31.827 19.975 31.8361 19.9735C31.8482 19.9735 31.8603 19.972 31.8723 19.972C31.8814 19.972 31.8905 19.972 31.8996 19.972C31.9116 19.972 31.9222 19.972 31.9343 19.972C31.9434 19.972 31.9525 19.972 31.9615 19.972C31.9721 19.972 31.9842 19.972 31.9948 19.972C32.0039 19.972 32.0129 19.972 32.022 19.972C32.0326 19.972 32.0447 19.972 32.0552 19.972C32.0643 19.972 32.0734 19.972 32.0825 19.9735C32.093 19.9735 32.1036 19.9735 32.1142 19.9765C32.1233 19.9765 32.1323 19.978 32.1414 19.9795C32.152 19.9795 32.1626 19.9825 32.1731 19.9825C32.1822 19.9825 32.1913 19.9856 32.1988 19.9856C32.2094 19.9871 32.22 19.9886 32.2306 19.9901C32.2397 19.9901 32.2472 19.9931 32.2563 19.9946C32.2669 19.9961 32.2774 19.9992 32.288 20.0007C32.2956 20.0022 32.3046 20.0037 32.3137 20.0052C32.3243 20.0082 32.3349 20.0097 32.3455 20.0127C32.3545 20.0142 32.3621 20.0158 32.3696 20.0188C32.3802 20.0218 32.3908 20.0248 32.4014 20.0278C32.4089 20.0309 32.4165 20.0324 32.4241 20.0339C32.4346 20.0369 32.4452 20.0399 32.4558 20.0444C32.4634 20.0475 32.4709 20.049 32.477 20.0505C32.4891 20.055 32.4996 20.058 32.5117 20.0626C32.5178 20.0641 32.5238 20.0671 32.5299 20.0686C32.5435 20.0731 32.5571 20.0792 32.5707 20.0837C32.5752 20.0852 32.5782 20.0867 32.5828 20.0882C32.6009 20.0958 32.6175 20.1033 32.6357 20.1109C32.6387 20.1124 32.6432 20.1139 32.6463 20.1154C32.6599 20.1214 32.6735 20.1275 32.6871 20.1335C32.6931 20.1365 32.6992 20.1395 32.7052 20.1426C32.7158 20.1486 32.7279 20.1531 32.7385 20.1592C32.746 20.1622 32.7521 20.1667 32.7581 20.1697C32.7687 20.1758 32.7778 20.1803 32.7883 20.1863C32.7944 20.1909 32.8019 20.1939 32.8095 20.1984C32.8186 20.2045 32.8292 20.2105 32.8382 20.215C32.8458 20.2196 32.8518 20.2241 32.8594 20.2286C32.8685 20.2346 32.8775 20.2407 32.8866 20.2467C32.8941 20.2513 32.9002 20.2558 32.9078 20.2603C32.9168 20.2664 32.9259 20.2724 32.935 20.2784C32.9425 20.283 32.9486 20.2875 32.9561 20.2935C32.9652 20.2996 32.9743 20.3071 32.9833 20.3131C32.9894 20.3177 32.9969 20.3237 33.0045 20.3282C33.0136 20.3343 33.0226 20.3418 33.0302 20.3479C33.0362 20.3539 33.0438 20.3584 33.0498 20.3645C33.0589 20.372 33.0665 20.3781 33.0755 20.3856C33.0816 20.3916 33.0891 20.3962 33.0952 20.4022C33.1043 20.4098 33.1118 20.4173 33.1209 20.4249C33.1269 20.4309 33.1345 20.4369 33.1405 20.443C33.1496 20.4505 33.1572 20.4581 33.1662 20.4656C33.1723 20.4717 33.1783 20.4777 33.1859 20.4837C33.195 20.4913 33.2025 20.5003 33.2116 20.5079C33.2176 20.5139 33.2237 20.52 33.2297 20.526C33.2388 20.5336 33.2463 20.5426 33.2554 20.5517C33.2615 20.5577 33.2675 20.5637 33.2736 20.5698C33.2826 20.5788 33.2917 20.5879 33.3008 20.597C33.3068 20.603 33.3113 20.609 33.3174 20.6136C33.3265 20.6241 33.3355 20.6347 33.3461 20.6453C33.3506 20.6498 33.3552 20.6558 33.3597 20.6604C33.3703 20.6724 33.3824 20.686 33.393 20.6996C33.396 20.7026 33.399 20.7056 33.4005 20.7087C33.4141 20.7253 33.4277 20.7419 33.4428 20.7585C33.4428 20.7585 33.4428 20.76 33.4444 20.7615C33.458 20.7766 33.4701 20.7932 33.4837 20.8098C33.4882 20.8143 33.4912 20.8204 33.4957 20.8249C33.5048 20.837 33.5154 20.8491 33.5245 20.8611C33.529 20.8672 33.5335 20.8732 33.5381 20.8808C33.5471 20.8928 33.5547 20.9034 33.5638 20.9155C33.5683 20.923 33.5743 20.9291 33.5789 20.9366C33.5864 20.9472 33.5955 20.9578 33.6031 20.9698C33.6076 20.9774 33.6136 20.9849 33.6182 20.9925C33.6257 21.003 33.6333 21.0151 33.6409 21.0257C33.6454 21.0332 33.6514 21.0408 33.6575 21.0498C33.665 21.0604 33.6726 21.071 33.6802 21.083C33.6862 21.0906 33.6907 21.0997 33.6968 21.1072C33.7043 21.1178 33.7119 21.1298 33.7179 21.1404C33.724 21.1495 33.7285 21.157 33.7346 21.1661C33.7421 21.1766 33.7497 21.1887 33.7557 21.2008C33.7603 21.2099 33.7663 21.2174 33.7709 21.2265C33.7784 21.2385 33.7845 21.2491 33.792 21.2612C33.7965 21.2702 33.8026 21.2778 33.8071 21.2868C33.8147 21.2989 33.8207 21.311 33.8283 21.3231C33.8328 21.3321 33.8389 21.3397 33.8434 21.3487C33.851 21.3608 33.857 21.3729 33.8646 21.3865C33.8691 21.3955 33.8736 21.4031 33.8797 21.4121C33.8872 21.4242 33.8948 21.4378 33.9008 21.4499C33.9054 21.4589 33.9099 21.4665 33.916 21.4755C33.9235 21.4891 33.9311 21.5027 33.9371 21.5148C33.9417 21.5223 33.9462 21.5314 33.9507 21.5405C33.9583 21.554 33.9658 21.5691 33.9734 21.5827C33.9779 21.5903 33.981 21.5993 33.9855 21.6069C33.993 21.622 34.0021 21.6386 34.0097 21.6537C34.0127 21.6612 34.0172 21.6673 34.0203 21.6733C34.0293 21.6914 34.0399 21.711 34.049 21.7307C34.0505 21.7337 34.052 21.7382 34.055 21.7412C34.0777 21.788 34.1004 21.8348 34.123 21.8816C34.1261 21.8877 34.1276 21.8922 34.1306 21.8982C34.1397 21.9163 34.1472 21.9345 34.1563 21.9526C34.1593 21.9601 34.1638 21.9677 34.1669 21.9752C34.1744 21.9918 34.182 22.0069 34.1895 22.0235C34.1941 22.0326 34.1971 22.0416 34.2016 22.0492C34.2092 22.0643 34.2152 22.0809 34.2228 22.096C34.2273 22.105 34.2304 22.1141 34.2349 22.1232C34.2409 22.1383 34.2485 22.1534 34.2545 22.1685C34.2591 22.1775 34.2636 22.1881 34.2666 22.1971C34.2727 22.2122 34.2802 22.2273 34.2863 22.2424C34.2908 22.253 34.2954 22.262 34.2984 22.2726C34.3044 22.2877 34.312 22.3028 34.318 22.3179C34.3226 22.3285 34.3271 22.339 34.3316 22.3481C34.3377 22.3632 34.3437 22.3783 34.3498 22.3934C34.3543 22.4039 34.3588 22.4145 34.3634 22.4251C34.3694 22.4402 34.3755 22.4553 34.3815 22.4704C34.386 22.4809 34.3906 22.4915 34.3951 22.5021C34.4012 22.5172 34.4072 22.5323 34.4133 22.5489C34.4178 22.5594 34.4223 22.57 34.4254 22.5806C34.4314 22.5957 34.4374 22.6123 34.4435 22.6274C34.448 22.6379 34.451 22.6485 34.4556 22.6591C34.4616 22.6757 34.4692 22.6923 34.4752 22.7089C34.4798 22.7195 34.4828 22.7285 34.4873 22.7391C34.4934 22.7557 34.5009 22.7723 34.507 22.7904C34.51 22.7995 34.5145 22.81 34.5176 22.8191C34.5236 22.8372 34.5312 22.8538 34.5387 22.8719C34.5417 22.881 34.5448 22.89 34.5493 22.8991C34.5569 22.9187 34.5644 22.9384 34.572 22.958C34.575 22.9655 34.578 22.9731 34.581 22.9806C34.5901 23.0048 34.5992 23.0274 34.6067 23.0516C34.6067 23.0561 34.6098 23.0591 34.6113 23.0621C34.6324 23.118 34.6521 23.1723 34.6717 23.2282C34.6717 23.2312 34.6748 23.2342 34.6748 23.2372C34.6838 23.2614 34.6929 23.2856 34.702 23.3112C34.705 23.3188 34.708 23.3263 34.7095 23.3339C34.7171 23.355 34.7246 23.3746 34.7307 23.3958C34.7337 23.4048 34.7367 23.4124 34.7397 23.4214C34.7458 23.441 34.7534 23.4607 34.7609 23.4803C34.7639 23.4894 34.7685 23.4999 34.7715 23.509C34.7775 23.5271 34.7851 23.5452 34.7911 23.5648C34.7957 23.5754 34.7987 23.586 34.8017 23.5965C34.8078 23.6146 34.8138 23.6328 34.8199 23.6494C34.8244 23.6599 34.8274 23.6705 34.8304 23.6811C34.8365 23.6992 34.8425 23.7173 34.8486 23.7354C34.8516 23.746 34.8561 23.7566 34.8592 23.7671C34.8652 23.7852 34.8713 23.8034 34.8773 23.8215C34.8818 23.832 34.8849 23.8426 34.8879 23.8517C34.8939 23.8698 34.9015 23.8894 34.9075 23.9075C34.9106 23.9181 34.9151 23.9286 34.9181 23.9392C34.9242 23.9573 34.9302 23.9754 34.9363 23.9936C34.9393 24.0041 34.9438 24.0147 34.9468 24.0253C34.9529 24.0449 34.9604 24.0645 34.9665 24.0841C34.9695 24.0932 34.9725 24.1007 34.9756 24.1098C34.9831 24.1309 34.9907 24.1521 34.9967 24.1747C34.9997 24.1823 35.0028 24.1898 35.0043 24.1974C35.0118 24.2215 35.0209 24.2457 35.0285 24.2698C35.0285 24.2743 35.0315 24.2789 35.033 24.2819C35.0542 24.3423 35.0738 24.4027 35.095 24.4646C35.098 24.4751 35.1025 24.4872 35.1055 24.4978C35.1116 24.5144 35.1176 24.5325 35.1237 24.5491C35.1433 24.6065 35.163 24.6653 35.1826 24.7227C35.1857 24.7333 35.1902 24.7438 35.1932 24.7544C35.1993 24.774 35.2068 24.7936 35.2129 24.8133C35.2159 24.8223 35.2189 24.8314 35.2219 24.842C35.2295 24.8616 35.2355 24.8812 35.2431 24.9023C35.2461 24.9129 35.2507 24.9235 35.2537 24.934C35.2597 24.9522 35.2658 24.9718 35.2733 24.9899C35.2779 25.0005 35.2809 25.011 35.2854 25.0231C35.2915 25.0412 35.299 25.0609 35.3051 25.079C35.3081 25.0895 35.3126 25.1001 35.3157 25.1107C35.3217 25.1288 35.3277 25.1469 35.3353 25.165C35.3398 25.1771 35.3444 25.1877 35.3474 25.1997C35.3534 25.2163 35.3595 25.2345 35.3655 25.2511C35.3701 25.2631 35.3731 25.2752 35.3776 25.2873C35.3837 25.3054 35.3897 25.322 35.3958 25.3401C36.6065 28.7533 38.2344 31.9477 43.3646 28.5631L43.3752 28.5616ZM26.718 3.11274C26.9054 4.63442 28.2915 5.71529 29.8136 5.5281C31.3373 5.34091 32.4195 3.9566 32.2321 2.43643C32.0447 0.914755 30.6586 -0.166121 29.1364 0.02107C27.6128 0.208261 26.5305 1.59257 26.718 3.11274ZM26.718 3.11274C26.9054 4.63442 28.2915 5.71529 29.8136 5.5281C31.3373 5.34091 32.4195 3.9566 32.2321 2.43643C32.0447 0.914755 30.6586 -0.166121 29.1364 0.02107C27.6128 0.208261 26.5305 1.59257 26.718 3.11274ZM32.8382 14.9435C32.0764 15.0371 31.5353 15.7285 31.629 16.4893C31.7227 17.2502 32.415 17.7906 33.1768 17.697C33.9386 17.6034 34.4798 16.9105 34.3861 16.1512C34.2923 15.3903 33.6 14.8499 32.8382 14.9435ZM32.8382 14.9435C32.0764 15.0371 31.5353 15.7285 31.629 16.4893C31.7227 17.2502 32.415 17.7906 33.1768 17.697C33.9386 17.6034 34.4798 16.9105 34.3861 16.1512C34.2923 15.3903 33.6 14.8499 32.8382 14.9435Z" fill="#8A01D3"/>
</svg>
