<svg width="251" height="64" viewBox="0 0 251 64" fill="none" xmlns="http://www.w3.org/2000/svg">
<path d="M109.251 27.6489V0.00241089H100.973L94.2623 17.2414L87.5516 0.00241089H79.3107V27.6489H85.1928V7.7521L92.9784 27.6415H95.5462L103.332 7.7521V27.6415H109.251V27.6489Z" fill="#8A01D3"/>
<path d="M134.28 27.6489V22.5497H120.612V16.1289H133.989V11.0745H120.612V5.05688H134.28V0.00241089H114.737V27.6489H134.28Z" fill="#8A01D3"/>
<path d="M151.173 27.6489V5.1838H159.204V0.00241089H137.176V5.1838H145.253V27.6489H151.173Z" fill="#8A01D3"/>
<path d="M186.062 27.6489L175.417 0.00241089H168.05L157.368 27.6489H163.825L165.564 22.8856H177.903L179.642 27.6489H186.062ZM176.291 17.7864H167.139L171.737 5.10167L176.291 17.7864Z" fill="#8A01D3"/>
<path d="M109.013 62.9631V31.1879H104.922L94.1657 57.5353L83.357 31.1879H79.3112V62.9631H82.0208V34.7641L93.6358 62.9631H94.6808L106.243 34.7641V62.9631H109.005H109.013Z" fill="#8A01D3"/>
<path d="M143.042 62.9631L130.046 31.1879H126.665L113.669 62.9631H116.715L119.902 55.1537H136.802L139.989 62.9631H143.035H143.042ZM135.951 52.675H120.768L128.337 33.8607L135.951 52.675Z" fill="#8A01D3"/>
<path d="M145.182 58.4825C147.608 61.439 151.556 63.5295 156.796 63.5295C165.366 63.5295 168.075 58.6243 168.075 54.5255C168.075 48.0973 162.462 46.4772 157.319 44.9989C152.99 43.8566 149.033 42.7591 149.033 38.9963C149.033 35.5694 152.221 33.1355 156.461 33.1355C160.029 33.1355 163.268 34.3748 165.552 37.1372L167.359 35.1364C164.888 32.3291 161.365 30.6568 156.602 30.6568C150.84 30.6568 146.182 33.9418 146.182 39.1381C146.182 44.9989 151.512 46.4249 156.513 47.8061C160.984 49.0007 165.224 50.2326 165.224 54.7121C165.224 57.4298 163.373 61.0508 156.849 61.0508C152.325 61.0508 148.996 58.811 146.951 56.4293L145.189 58.475L145.182 58.4825Z" fill="#8A01D3"/>
<path d="M185.31 62.9631V33.6666H195.686V31.1879H172.172V33.6666H182.548V62.9631H185.31Z" fill="#8A01D3"/>
<path d="M221.453 62.9639V60.4852H204.03V47.905H221.117V45.4263H204.03V33.6599H221.453V31.1812H201.321V62.9564H221.453V62.9639Z" fill="#8A01D3"/>
<path d="M250.078 62.9631L240.896 49.6214C245.607 49.4272 249.705 46.2393 249.705 40.4755C249.705 34.7118 245.517 31.1879 240.045 31.1879H228.192V62.9631H230.901V49.8155H237.896L246.793 62.9631H250.078ZM246.846 40.4755C246.846 44.4773 243.987 47.3368 239.799 47.3368H230.901V33.6666H239.799C243.987 33.6666 246.846 36.4738 246.846 40.4755Z" fill="#8A01D3"/>
<path d="M66.7813 43.8492C65.505 46.38 63.9433 48.7069 62.1449 50.802C58.2627 55.3307 53.2876 58.7723 47.7207 60.8164C47.7091 60.8211 47.6975 60.8257 47.6859 60.828C47.3842 60.9393 47.0803 61.0459 46.774 61.1479C46.7624 61.1525 46.7508 61.1548 46.7392 61.1595C46.6463 61.1919 46.5512 61.222 46.456 61.2522C46.4305 61.2614 46.405 61.2684 46.3795 61.2776C46.0964 61.368 45.8133 61.4561 45.5278 61.5395C45.4907 61.5511 45.4536 61.5604 45.4165 61.572C45.3329 61.5975 45.2494 61.6207 45.1635 61.6438C45.1218 61.6554 45.0823 61.667 45.0405 61.6786C44.8897 61.7203 44.7412 61.762 44.5904 61.8014C44.5486 61.813 44.5068 61.8246 44.4651 61.8339C44.3885 61.8547 44.3119 61.8733 44.2353 61.8918C44.1796 61.9057 44.1239 61.9196 44.0683 61.9335C43.994 61.9521 43.9221 61.9706 43.8478 61.9868C43.7805 62.0031 43.7132 62.0193 43.6482 62.0332C43.5392 62.0587 43.4301 62.0842 43.3211 62.1074C43.2514 62.1236 43.1795 62.1398 43.1076 62.1537C43.0426 62.1676 42.9776 62.1815 42.9103 62.1954C42.8361 62.2116 42.7641 62.2256 42.6899 62.2418C42.6295 62.2534 42.5692 62.2673 42.5089 62.2789C42.3859 62.302 42.2629 62.3275 42.1399 62.3507C42.0889 62.36 42.0378 62.3692 41.9868 62.3785C41.8986 62.3947 41.8127 62.411 41.7269 62.4249C41.6735 62.4341 41.6178 62.4434 41.5621 62.4527C41.4647 62.4689 41.3672 62.4851 41.2674 62.5013C41.2303 62.5083 41.1908 62.5129 41.1537 62.5199C41.0214 62.5408 40.8892 62.5616 40.7569 62.5801C40.7151 62.5871 40.6734 62.5917 40.6293 62.5987C40.5272 62.6126 40.4251 62.6265 40.323 62.6404C40.2812 62.645 40.2394 62.652 40.1977 62.6566C39.9169 62.6937 39.6361 62.7262 39.353 62.7563C39.3182 62.7586 39.2857 62.7632 39.2509 62.7679C39.1302 62.7795 39.0096 62.7911 38.8889 62.8026C38.8657 62.805 38.8425 62.8073 38.817 62.8096C38.6685 62.8235 38.5199 62.8351 38.3714 62.8467C38.3645 62.8467 38.3598 62.8467 38.3529 62.8467C38.2113 62.8583 38.0721 62.8675 37.9305 62.8768C37.9073 62.8768 37.8841 62.8791 37.8609 62.8814C37.5593 62.9 37.2553 62.9162 36.9513 62.9255C36.9466 62.9255 36.9397 62.9255 36.935 62.9255C36.7865 62.9301 36.638 62.9347 36.4872 62.9371C36.4779 62.9371 36.4686 62.9371 36.4593 62.9371C36.3039 62.9417 36.1461 62.944 35.9906 62.944C22.9564 63.0506 10.9547 55.8683 4.90054 44.3405C2.93972 40.6068 1.70753 36.6205 1.1947 32.574C1.1947 32.5763 1.19702 32.5786 1.19934 32.5809C0.58209 27.7278 0.99746 22.7913 2.42225 18.1028C2.68678 17.2314 2.98845 16.3669 3.3226 15.514C3.35973 15.4213 3.39686 15.3263 3.43398 15.2336C3.44559 15.2058 3.45719 15.1803 3.46647 15.1525C3.49432 15.0806 3.52448 15.0111 3.55465 14.9392C3.56625 14.9114 3.57786 14.8836 3.58946 14.8535C3.62659 14.7654 3.66371 14.6774 3.70084 14.5893C3.70316 14.5823 3.70548 14.5754 3.71012 14.5707C3.74957 14.4757 3.79134 14.3807 3.83311 14.2857C3.84471 14.2579 3.85632 14.2324 3.86792 14.2069C3.89808 14.1374 3.93057 14.0655 3.96306 13.9937C3.97466 13.9659 3.98858 13.938 4.00019 13.9102C4.03963 13.8198 4.0814 13.7318 4.12317 13.6437C4.12549 13.6391 4.12781 13.6344 4.13013 13.6298C4.17422 13.5371 4.21831 13.4421 4.2624 13.3494C4.274 13.3239 4.28793 13.2961 4.29953 13.2706C4.33434 13.201 4.36683 13.1292 4.40163 13.0597C4.41556 13.0319 4.42716 13.004 4.44108 12.9785C4.48517 12.8882 4.52926 12.8001 4.57335 12.7097C4.57335 12.7051 4.57567 12.7028 4.57799 12.7004C4.6244 12.6077 4.67081 12.515 4.71954 12.4223C4.73346 12.3968 4.74507 12.3713 4.75899 12.3458C4.7938 12.2763 4.83092 12.2068 4.86805 12.1373C4.88198 12.1118 4.8959 12.0839 4.90982 12.0585C4.95623 11.9681 5.00496 11.88 5.05137 11.7896C5.05137 11.7873 5.05369 11.785 5.05601 11.7827C5.10474 11.69 5.1558 11.5996 5.20685 11.5069C5.22077 11.4814 5.23469 11.4559 5.24861 11.4304C5.28574 11.3609 5.32519 11.2936 5.36232 11.2241C5.37624 11.1986 5.39017 11.1731 5.40641 11.1453C5.45746 11.0549 5.50851 10.9645 5.55956 10.8765C5.55956 10.8765 5.55956 10.8765 5.55956 10.8742C5.61061 10.7838 5.66398 10.6934 5.71736 10.603C5.73128 10.5775 5.74752 10.552 5.76145 10.5265C5.80089 10.4593 5.84266 10.3898 5.88211 10.3226C5.89836 10.2971 5.91228 10.2716 5.92852 10.2461C5.98189 10.1557 6.03758 10.0676 6.09096 9.97723C6.14665 9.88685 6.20234 9.79878 6.25803 9.70839C6.27428 9.6829 6.29052 9.6574 6.30676 9.63191C6.34853 9.5647 6.3903 9.49981 6.43439 9.4326C6.45063 9.4071 6.46688 9.38161 6.48312 9.35611C6.59683 9.17998 6.71285 9.00384 6.8312 8.83001C6.84744 8.80452 6.866 8.77903 6.88225 8.75353C6.92634 8.68864 6.97043 8.62375 7.01451 8.55885C7.03308 8.53336 7.04932 8.50787 7.06789 8.48237C7.12822 8.3943 7.18855 8.30855 7.24889 8.2228C8.10051 32.8312 32.9113 7.70597 38.7845 10.0305C40.6873 10.7838 41.8754 12.6888 41.7129 14.7283C40.0747 21.9941 28.1241 45.5016 44.052 33.756C44.1054 33.7027 44.1611 33.6494 44.2144 33.5984C44.233 33.5798 44.2493 33.5636 44.2678 33.5474C44.3026 33.5126 44.3374 33.4779 44.3746 33.4454C44.3954 33.4245 44.4163 33.406 44.4395 33.3852C44.4697 33.355 44.5022 33.3249 44.5347 33.2971C44.5579 33.2762 44.5788 33.2554 44.602 33.2345C44.6321 33.2067 44.6623 33.1789 44.6901 33.1511C44.7134 33.1302 44.7366 33.1094 44.7574 33.0885C44.7853 33.063 44.8155 33.0352 44.8433 33.0097C44.8665 32.9888 44.8897 32.968 44.9106 32.9471C44.9384 32.9216 44.9663 32.8984 44.9941 32.873C45.0173 32.8521 45.0405 32.8336 45.0637 32.8127C45.0916 32.7895 45.1194 32.7663 45.145 32.7432C45.1682 32.7246 45.1914 32.7038 45.2146 32.6852C45.2401 32.6621 45.268 32.6389 45.2935 32.618C45.3167 32.5995 45.3399 32.5809 45.3608 32.5601C45.3863 32.5392 45.4118 32.516 45.4397 32.4952C45.4629 32.4766 45.4861 32.4581 45.507 32.4396C45.5325 32.4187 45.558 32.3978 45.5835 32.377C45.6067 32.3584 45.6276 32.3422 45.6508 32.3237C45.6764 32.3028 45.7019 32.282 45.7274 32.2634C45.7483 32.2449 45.7715 32.2287 45.7924 32.2124C45.8179 32.1916 45.8434 32.173 45.869 32.1545C45.8898 32.1383 45.9107 32.122 45.9316 32.1058C45.9571 32.0873 45.9827 32.0664 46.0082 32.0479C46.0291 32.0317 46.05 32.0154 46.0708 32.0015C46.0964 31.983 46.1219 31.9645 46.1474 31.9459C46.1683 31.932 46.1869 31.9181 46.2054 31.9042C46.2333 31.8857 46.2588 31.8671 46.2843 31.8486C46.3029 31.8347 46.3215 31.8231 46.34 31.8092C46.3679 31.7906 46.3957 31.7698 46.4236 31.7512C46.4398 31.7396 46.456 31.7281 46.4723 31.7188C46.5094 31.6933 46.5465 31.6701 46.5837 31.6446C46.5906 31.64 46.5976 31.6353 46.6046 31.6307C46.6487 31.6029 46.6904 31.5751 46.7345 31.5473C46.7484 31.538 46.7624 31.5311 46.7763 31.5218C46.8041 31.5032 46.8343 31.487 46.8621 31.4685C46.8784 31.4592 46.8946 31.4476 46.9132 31.4384C46.9387 31.4221 46.9642 31.4082 46.9898 31.392C47.0083 31.3827 47.0246 31.3711 47.0431 31.3619C47.0663 31.348 47.0895 31.3341 47.1128 31.3225C47.1313 31.3109 47.1499 31.3016 47.1661 31.2923C47.1893 31.2808 47.2125 31.2668 47.2334 31.2553C47.252 31.246 47.2705 31.2367 47.2891 31.2251C47.3123 31.2135 47.3332 31.202 47.3564 31.1904C47.375 31.1811 47.3935 31.1718 47.4098 31.1626C47.4307 31.151 47.4539 31.1394 47.4747 31.1301C47.4933 31.1208 47.5096 31.1116 47.5281 31.1046C47.549 31.0953 47.5699 31.0838 47.5908 31.0745C47.6093 31.0675 47.6279 31.0583 47.6441 31.049C47.665 31.0397 47.6859 31.0305 47.7068 31.0212C47.7254 31.0142 47.7416 31.005 47.7602 30.998C47.7811 30.9887 47.8019 30.9818 47.8205 30.9725C47.8391 30.9656 47.8553 30.9586 47.8739 30.9517C47.8948 30.9424 47.9133 30.9354 47.9342 30.9285C47.9505 30.9215 47.969 30.9146 47.9853 30.9099C48.0061 30.903 48.0247 30.8937 48.0456 30.8868C48.0618 30.8798 48.0804 30.8752 48.0966 30.8682C48.1175 30.8613 48.1361 30.8543 48.157 30.8474C48.1732 30.8427 48.1895 30.8358 48.2057 30.8311C48.2266 30.8242 48.2475 30.8195 48.266 30.8126C48.2823 30.808 48.2985 30.8033 48.3125 30.7987C48.3333 30.7941 48.3542 30.7871 48.3751 30.7825C48.389 30.7778 48.4053 30.7732 48.4192 30.7709C48.4424 30.7639 48.4633 30.7593 48.4865 30.7547C48.5004 30.7523 48.512 30.7477 48.5259 30.7454C48.5538 30.7384 48.5793 30.7338 48.6072 30.7268C48.6141 30.7268 48.6211 30.7222 48.628 30.7222C48.6628 30.7153 48.6953 30.7083 48.7301 30.7037C48.7394 30.7037 48.7487 30.7014 48.758 30.699C48.7812 30.6944 48.8067 30.6921 48.8299 30.6874C48.8415 30.6874 48.8554 30.6851 48.867 30.6828C48.8879 30.6805 48.9065 30.6782 48.9274 30.6759C48.9413 30.6759 48.9552 30.6735 48.9692 30.6712C48.9877 30.6712 49.0063 30.6666 49.0248 30.6666C49.0388 30.6666 49.0527 30.6666 49.0666 30.6643C49.0852 30.6643 49.1037 30.662 49.1223 30.662C49.1362 30.662 49.1502 30.662 49.1641 30.662C49.1826 30.662 49.1989 30.662 49.2174 30.662C49.2314 30.662 49.2453 30.662 49.2592 30.662C49.2755 30.662 49.294 30.662 49.3103 30.662C49.3242 30.662 49.3381 30.662 49.352 30.662C49.3683 30.662 49.3868 30.662 49.4031 30.662C49.417 30.662 49.4309 30.662 49.4449 30.6643C49.4611 30.6643 49.4773 30.6643 49.4936 30.6689C49.5075 30.6689 49.5214 30.6712 49.5354 30.6735C49.5516 30.6735 49.5678 30.6782 49.5841 30.6782C49.598 30.6782 49.6119 30.6828 49.6235 30.6828C49.6398 30.6851 49.656 30.6874 49.6723 30.6898C49.6862 30.6898 49.6978 30.6944 49.7117 30.6967C49.728 30.699 49.7442 30.7037 49.7604 30.706C49.772 30.7083 49.786 30.7106 49.7999 30.7129C49.8161 30.7176 49.8324 30.7199 49.8486 30.7245C49.8625 30.7268 49.8741 30.7292 49.8857 30.7338C49.902 30.7384 49.9182 30.7431 49.9345 30.7477C49.9461 30.7523 49.9577 30.7547 49.9693 30.757C49.9855 30.7616 50.0018 30.7662 50.018 30.7732C50.0296 30.7778 50.0412 30.7802 50.0505 30.7825C50.0691 30.7894 50.0853 30.7941 50.1039 30.801C50.1132 30.8033 50.1224 30.808 50.1317 30.8103C50.1526 30.8172 50.1735 30.8265 50.1944 30.8335C50.2013 30.8358 50.206 30.8381 50.2129 30.8404C50.2408 30.852 50.2663 30.8636 50.2942 30.8752C50.2988 30.8775 50.3058 30.8798 50.3104 30.8821C50.3313 30.8914 50.3522 30.9007 50.3731 30.9099C50.3823 30.9146 50.3916 30.9192 50.4009 30.9238C50.4171 30.9331 50.4357 30.9401 50.4519 30.9493C50.4636 30.954 50.4728 30.9609 50.4821 30.9656C50.4984 30.9748 50.5123 30.9818 50.5285 30.9911C50.5378 30.998 50.5494 31.0026 50.561 31.0096C50.5749 31.0189 50.5912 31.0281 50.6051 31.0351C50.6167 31.042 50.626 31.049 50.6376 31.0559C50.6515 31.0652 50.6654 31.0745 50.6794 31.0838C50.691 31.0907 50.7002 31.0977 50.7118 31.1046C50.7258 31.1139 50.7397 31.1232 50.7536 31.1324C50.7652 31.1394 50.7745 31.1463 50.7861 31.1556C50.8 31.1649 50.8139 31.1765 50.8279 31.1857C50.8372 31.1927 50.8488 31.202 50.8604 31.2089C50.8743 31.2182 50.8882 31.2298 50.8998 31.239C50.9091 31.2483 50.9207 31.2553 50.93 31.2645C50.9439 31.2761 50.9555 31.2854 50.9694 31.297C50.9787 31.3062 50.9903 31.3132 50.9996 31.3225C51.0135 31.3341 51.0251 31.3456 51.039 31.3572C51.0483 31.3665 51.0599 31.3758 51.0692 31.385C51.0831 31.3966 51.0947 31.4082 51.1087 31.4198C51.1179 31.4291 51.1272 31.4384 51.1388 31.4476C51.1527 31.4592 51.1643 31.4731 51.1783 31.4847C51.1875 31.494 51.1968 31.5032 51.2061 31.5125C51.22 31.5241 51.2316 31.538 51.2456 31.5519C51.2548 31.5612 51.2641 31.5705 51.2734 31.5797C51.2873 31.5936 51.3013 31.6075 51.3152 31.6214C51.3245 31.6307 51.3314 31.64 51.3407 31.6469C51.3546 31.6632 51.3685 31.6794 51.3848 31.6956C51.3918 31.7026 51.3987 31.7118 51.4057 31.7188C51.4219 31.7373 51.4405 31.7582 51.4567 31.779C51.4614 31.7837 51.466 31.7883 51.4683 31.7929C51.4892 31.8184 51.5101 31.8439 51.5333 31.8694C51.5333 31.8694 51.5333 31.8717 51.5356 31.8741C51.5565 31.8972 51.5751 31.9227 51.596 31.9482C51.6029 31.9552 51.6076 31.9644 51.6145 31.9714C51.6284 31.9899 51.6447 32.0085 51.6586 32.027C51.6656 32.0363 51.6725 32.0456 51.6795 32.0572C51.6934 32.0757 51.705 32.0919 51.7189 32.1105C51.7259 32.1221 51.7352 32.1313 51.7421 32.1429C51.7537 32.1591 51.7677 32.1754 51.7793 32.1939C51.7862 32.2055 51.7955 32.2171 51.8025 32.2287C51.8141 32.2449 51.8257 32.2634 51.8373 32.2796C51.8442 32.2912 51.8535 32.3028 51.8628 32.3167C51.8744 32.333 51.886 32.3492 51.8976 32.3677C51.9069 32.3793 51.9139 32.3932 51.9231 32.4048C51.9347 32.421 51.9463 32.4396 51.9556 32.4558C51.9649 32.4697 51.9719 32.4813 51.9812 32.4952C51.9928 32.5114 52.0044 32.5299 52.0136 32.5485C52.0206 32.5624 52.0299 32.574 52.0368 32.5879C52.0485 32.6064 52.0577 32.6227 52.0693 32.6412C52.0763 32.6551 52.0856 32.6667 52.0925 32.6806C52.1041 32.6991 52.1134 32.7177 52.125 32.7362C52.132 32.7501 52.1413 32.7617 52.1482 32.7756C52.1598 32.7942 52.1691 32.8127 52.1807 32.8336C52.1877 32.8475 52.1946 32.8591 52.2039 32.873C52.2155 32.8915 52.2271 32.9124 52.2364 32.9309C52.2434 32.9448 52.2503 32.9564 52.2596 32.9703C52.2712 32.9912 52.2828 33.012 52.2921 33.0306C52.2991 33.0421 52.306 33.056 52.313 33.07C52.3246 33.0908 52.3362 33.114 52.3478 33.1348C52.3548 33.1464 52.3594 33.1603 52.3664 33.1719C52.378 33.1951 52.3919 33.2206 52.4035 33.2438C52.4081 33.2554 52.4151 33.2646 52.4197 33.2739C52.4337 33.3017 52.4499 33.3318 52.4638 33.362C52.4661 33.3666 52.4685 33.3736 52.4731 33.3782C52.5079 33.45 52.5427 33.5219 52.5775 33.5937C52.5822 33.603 52.5845 33.61 52.5891 33.6192C52.6031 33.647 52.6147 33.6749 52.6286 33.7027C52.6332 33.7143 52.6402 33.7258 52.6448 33.7374C52.6564 33.7629 52.668 33.7861 52.6796 33.8116C52.6866 33.8255 52.6912 33.8394 52.6982 33.851C52.7098 33.8742 52.7191 33.8997 52.7307 33.9228C52.7376 33.9367 52.7423 33.9506 52.7492 33.9646C52.7585 33.9877 52.7701 34.0109 52.7794 34.0341C52.7864 34.048 52.7933 34.0642 52.798 34.0781C52.8073 34.1013 52.8189 34.1245 52.8281 34.1476C52.8351 34.1639 52.8421 34.1778 52.8467 34.194C52.856 34.2172 52.8676 34.2403 52.8769 34.2635C52.8838 34.2797 52.8908 34.296 52.8978 34.3099C52.907 34.3331 52.9163 34.3562 52.9256 34.3794C52.9326 34.3956 52.9395 34.4119 52.9465 34.4281C52.9558 34.4513 52.965 34.4744 52.9743 34.4976C52.9813 34.5138 52.9883 34.53 52.9952 34.5463C53.0045 34.5695 53.0138 34.5926 53.0231 34.6181C53.03 34.6343 53.037 34.6506 53.0416 34.6668C53.0509 34.69 53.0602 34.7155 53.0695 34.7386C53.0764 34.7549 53.0811 34.7711 53.088 34.7873C53.0973 34.8128 53.1089 34.8383 53.1182 34.8638C53.1252 34.88 53.1298 34.8939 53.1368 34.9101C53.146 34.9356 53.1576 34.9611 53.1669 34.9889C53.1716 35.0028 53.1785 35.0191 53.1832 35.033C53.1925 35.0608 53.2041 35.0863 53.2157 35.1141C53.2203 35.128 53.2249 35.1419 53.2319 35.1558C53.2435 35.1859 53.2551 35.2161 53.2667 35.2462C53.2714 35.2578 53.276 35.2694 53.2806 35.281C53.2946 35.318 53.3085 35.3528 53.3201 35.3899C53.3201 35.3968 53.3247 35.4015 53.327 35.4061C53.3595 35.4919 53.3897 35.5753 53.4199 35.661C53.4199 35.6657 53.4245 35.6703 53.4245 35.6749C53.4384 35.712 53.4524 35.7491 53.4663 35.7885C53.4709 35.8001 53.4756 35.8117 53.4779 35.8233C53.4895 35.8557 53.5011 35.8859 53.5104 35.9183C53.515 35.9322 53.5196 35.9438 53.5243 35.9577C53.5336 35.9878 53.5452 36.018 53.5568 36.0481C53.5614 36.062 53.5684 36.0782 53.573 36.0921C53.5823 36.1199 53.5939 36.1478 53.6032 36.1779C53.6101 36.1941 53.6148 36.2103 53.6194 36.2265C53.6287 36.2544 53.638 36.2822 53.6473 36.3077C53.6542 36.3239 53.6589 36.3401 53.6635 36.3563C53.6728 36.3841 53.6821 36.412 53.6914 36.4398C53.696 36.456 53.703 36.4722 53.7076 36.4884C53.7169 36.5162 53.7262 36.5441 53.7355 36.5719C53.7424 36.5881 53.7471 36.6043 53.7517 36.6182C53.761 36.646 53.7726 36.6762 53.7819 36.704C53.7865 36.7202 53.7935 36.7364 53.7981 36.7526C53.8074 36.7805 53.8167 36.8083 53.826 36.8361C53.8306 36.8523 53.8376 36.8685 53.8422 36.8847C53.8515 36.9149 53.8631 36.945 53.8724 36.9751C53.877 36.989 53.8816 37.0006 53.8863 37.0145C53.8979 37.047 53.9095 37.0794 53.9188 37.1142C53.9234 37.1258 53.9281 37.1374 53.9304 37.149C53.942 37.186 53.9559 37.2231 53.9675 37.2602C53.9675 37.2672 53.9721 37.2741 53.9745 37.2787C54.007 37.3714 54.0371 37.4642 54.0696 37.5592C54.0742 37.5754 54.0812 37.5939 54.0859 37.6102C54.0951 37.6357 54.1044 37.6635 54.1137 37.689C54.1439 37.777 54.174 37.8674 54.2042 37.9555C54.2088 37.9717 54.2158 37.9879 54.2204 38.0042C54.2297 38.0343 54.2413 38.0644 54.2506 38.0945C54.2552 38.1084 54.2599 38.1224 54.2645 38.1386C54.2761 38.1687 54.2854 38.1988 54.297 38.2313C54.3017 38.2475 54.3086 38.2637 54.3133 38.28C54.3225 38.3078 54.3318 38.3379 54.3434 38.3657C54.3504 38.3819 54.355 38.3981 54.362 38.4167C54.3713 38.4445 54.3829 38.4746 54.3922 38.5024C54.3968 38.5187 54.4038 38.5349 54.4084 38.5511C54.4177 38.5789 54.427 38.6067 54.4386 38.6345C54.4455 38.6531 54.4525 38.6693 54.4571 38.6879C54.4664 38.7133 54.4757 38.7412 54.485 38.7667C54.4919 38.7852 54.4966 38.8037 54.5035 38.8223C54.5128 38.8501 54.5221 38.8756 54.5314 38.9034C56.3901 44.1435 58.8893 49.0476 66.7651 43.8515L66.7813 43.8492ZM41.2094 4.77882C41.4971 7.11498 43.625 8.77439 45.9618 8.48701C48.3008 8.19962 49.9623 6.07437 49.6746 3.74053C49.3868 1.40438 47.2589 -0.255037 44.9222 0.0323476C42.5831 0.319732 40.9217 2.44499 41.2094 4.77882ZM41.2094 4.77882C41.4971 7.11498 43.625 8.77439 45.9618 8.48701C48.3008 8.19962 49.9623 6.07437 49.6746 3.74053C49.3868 1.40438 47.2589 -0.255037 44.9222 0.0323476C42.5831 0.319732 40.9217 2.44499 41.2094 4.77882ZM50.6051 22.942C49.4356 23.0857 48.6048 24.1471 48.7487 25.3152C48.8926 26.4833 49.9554 27.313 51.1249 27.1693C52.2944 27.0256 53.1252 25.9618 52.9813 24.7961C52.8374 23.628 51.7746 22.7983 50.6051 22.942ZM50.6051 22.942C49.4356 23.0857 48.6048 24.1471 48.7487 25.3152C48.8926 26.4833 49.9554 27.313 51.1249 27.1693C52.2944 27.0256 53.1252 25.9618 52.9813 24.7961C52.8374 23.628 51.7746 22.7983 50.6051 22.942Z" fill="#8A01D3"/>
</svg>
