<svg width="202" height="260" viewBox="0 0 202 260" fill="none" xmlns="http://www.w3.org/2000/svg">
<path fill-rule="evenodd" clip-rule="evenodd" d="M171.309 128.491C154.142 139.834 148.693 129.129 144.64 117.692C144.62 117.634 144.599 117.576 144.579 117.517C144.565 117.477 144.55 117.436 144.536 117.396C144.516 117.338 144.495 117.281 144.475 117.223C144.461 117.183 144.447 117.144 144.434 117.105C144.412 117.043 144.39 116.982 144.369 116.92C144.357 116.884 144.344 116.848 144.332 116.813C144.31 116.751 144.288 116.688 144.267 116.626C144.254 116.589 144.241 116.553 144.228 116.516C144.207 116.453 144.185 116.391 144.164 116.329C144.151 116.293 144.139 116.258 144.127 116.222C144.104 116.156 144.082 116.089 144.058 116.023C144.048 115.991 144.037 115.96 144.026 115.928C144.003 115.863 143.981 115.798 143.959 115.734C143.947 115.699 143.936 115.665 143.924 115.63C143.857 115.436 143.791 115.242 143.725 115.048C143.705 114.991 143.686 114.933 143.666 114.876C143.654 114.839 143.641 114.802 143.629 114.765C143.559 114.562 143.49 114.358 143.421 114.155C143.416 114.141 143.411 114.126 143.406 114.112C143.378 114.032 143.351 113.952 143.324 113.872C143.315 113.846 143.306 113.821 143.298 113.795C143.274 113.723 143.249 113.651 143.225 113.579C143.215 113.55 143.205 113.521 143.195 113.492C143.172 113.426 143.15 113.36 143.127 113.294C143.115 113.259 143.103 113.224 143.091 113.189C143.07 113.127 143.049 113.066 143.028 113.005C143.016 112.97 143.004 112.934 142.992 112.9C142.97 112.838 142.949 112.776 142.928 112.713C142.916 112.678 142.904 112.644 142.892 112.61C142.87 112.549 142.849 112.487 142.828 112.427C142.816 112.391 142.803 112.356 142.791 112.32C142.771 112.26 142.749 112.199 142.729 112.139C142.716 112.104 142.704 112.068 142.691 112.033C142.67 111.973 142.649 111.914 142.628 111.854C142.616 111.819 142.604 111.783 142.591 111.748C142.57 111.686 142.548 111.624 142.526 111.563C142.514 111.53 142.503 111.498 142.491 111.465C142.468 111.4 142.445 111.335 142.422 111.27C142.412 111.241 142.402 111.213 142.391 111.185C142.367 111.116 142.343 111.048 142.318 110.979C142.309 110.954 142.3 110.928 142.291 110.903C142.261 110.82 142.232 110.738 142.202 110.657C142.199 110.646 142.194 110.636 142.191 110.625C142.123 110.437 142.054 110.251 141.986 110.066C141.982 110.054 141.977 110.042 141.972 110.029C141.943 109.951 141.914 109.872 141.884 109.794C141.875 109.768 141.865 109.744 141.856 109.718C141.831 109.653 141.807 109.587 141.782 109.523C141.771 109.493 141.759 109.463 141.748 109.434C141.726 109.374 141.703 109.314 141.68 109.254C141.667 109.222 141.655 109.19 141.642 109.157C141.62 109.1 141.599 109.043 141.576 108.987C141.564 108.954 141.55 108.921 141.538 108.887C141.516 108.833 141.494 108.777 141.473 108.723C141.459 108.688 141.446 108.653 141.432 108.619C141.411 108.566 141.39 108.513 141.369 108.46C141.355 108.425 141.341 108.39 141.327 108.355C141.306 108.303 141.286 108.251 141.265 108.2C141.25 108.165 141.236 108.13 141.222 108.095C141.201 108.044 141.18 107.992 141.159 107.941C141.145 107.906 141.13 107.872 141.116 107.837C141.095 107.786 141.074 107.735 141.053 107.685C141.038 107.65 141.024 107.616 141.009 107.581C140.988 107.531 140.966 107.48 140.945 107.43C140.93 107.396 140.916 107.362 140.902 107.329C140.88 107.278 140.858 107.228 140.837 107.178C140.822 107.145 140.808 107.112 140.794 107.079C140.771 107.028 140.749 106.977 140.726 106.926C140.712 106.894 140.699 106.863 140.685 106.832C140.661 106.78 140.637 106.728 140.615 106.675C140.601 106.646 140.588 106.617 140.575 106.587C140.55 106.532 140.525 106.478 140.5 106.424C140.488 106.398 140.476 106.372 140.465 106.346C140.436 106.284 140.407 106.222 140.378 106.161C140.37 106.144 140.362 106.126 140.354 106.108C140.278 105.949 140.202 105.791 140.125 105.636C140.118 105.624 140.113 105.611 140.106 105.599C140.074 105.535 140.042 105.471 140.01 105.408C139.999 105.386 139.987 105.363 139.975 105.34C139.949 105.287 139.922 105.234 139.895 105.182C139.88 105.156 139.867 105.13 139.853 105.103C139.828 105.055 139.803 105.008 139.778 104.96C139.763 104.932 139.747 104.904 139.732 104.876C139.708 104.832 139.684 104.786 139.66 104.742C139.644 104.713 139.628 104.685 139.612 104.655C139.588 104.612 139.564 104.57 139.54 104.527C139.523 104.497 139.507 104.469 139.491 104.439C139.467 104.398 139.443 104.356 139.42 104.315C139.402 104.286 139.385 104.257 139.369 104.228C139.346 104.187 139.322 104.146 139.298 104.107C139.281 104.078 139.263 104.049 139.246 104.02C139.222 103.98 139.198 103.942 139.174 103.902C139.157 103.874 139.139 103.845 139.121 103.816C139.097 103.778 139.074 103.739 139.049 103.702C139.032 103.674 139.013 103.645 138.996 103.617C138.972 103.58 138.947 103.542 138.923 103.505C138.905 103.477 138.887 103.449 138.869 103.422C138.844 103.385 138.82 103.348 138.795 103.312C138.777 103.285 138.759 103.258 138.741 103.232C138.715 103.195 138.69 103.158 138.664 103.121C138.646 103.096 138.629 103.07 138.611 103.045C138.585 103.007 138.558 102.97 138.531 102.934C138.514 102.91 138.497 102.886 138.48 102.863C138.452 102.824 138.422 102.787 138.394 102.749C138.378 102.727 138.362 102.706 138.346 102.685C138.315 102.643 138.283 102.602 138.251 102.561C138.238 102.544 138.225 102.528 138.212 102.511C138.17 102.457 138.126 102.403 138.083 102.35C138.08 102.347 138.079 102.344 138.076 102.342C138.029 102.285 137.983 102.23 137.936 102.175C137.927 102.165 137.918 102.154 137.909 102.144C137.871 102.1 137.834 102.057 137.796 102.014C137.781 101.997 137.765 101.98 137.749 101.963C137.717 101.928 137.686 101.894 137.655 101.859C137.636 101.84 137.618 101.821 137.6 101.801C137.57 101.77 137.541 101.739 137.511 101.708C137.491 101.688 137.471 101.668 137.451 101.649C137.423 101.62 137.394 101.59 137.365 101.562C137.344 101.542 137.324 101.522 137.303 101.502C137.275 101.475 137.246 101.448 137.217 101.421C137.196 101.401 137.175 101.381 137.153 101.362C137.125 101.336 137.096 101.31 137.068 101.285C137.046 101.266 137.024 101.247 137.002 101.227C136.974 101.202 136.945 101.178 136.917 101.153C136.895 101.135 136.872 101.116 136.85 101.098C136.821 101.074 136.792 101.05 136.764 101.027C136.741 101.009 136.719 100.991 136.696 100.973C136.667 100.95 136.638 100.928 136.609 100.906C136.586 100.889 136.563 100.872 136.54 100.854C136.51 100.833 136.481 100.812 136.451 100.79C136.428 100.773 136.404 100.757 136.381 100.741C136.351 100.72 136.321 100.7 136.291 100.679C136.268 100.664 136.244 100.648 136.221 100.633C136.19 100.612 136.159 100.594 136.128 100.574C136.105 100.56 136.081 100.544 136.058 100.53C136.026 100.511 135.994 100.492 135.962 100.473C135.939 100.46 135.916 100.446 135.893 100.433C135.86 100.414 135.826 100.396 135.792 100.377C135.771 100.365 135.749 100.353 135.726 100.342C135.69 100.322 135.652 100.304 135.615 100.286C135.596 100.276 135.576 100.266 135.556 100.256C135.511 100.234 135.465 100.213 135.42 100.193C135.408 100.188 135.396 100.182 135.384 100.176C135.326 100.151 135.268 100.126 135.21 100.103C135.197 100.098 135.184 100.093 135.17 100.088C135.124 100.07 135.079 100.052 135.032 100.035C135.012 100.027 134.99 100.02 134.969 100.013C134.931 100 134.892 99.9863 134.853 99.9735C134.829 99.9656 134.805 99.9584 134.781 99.9506C134.745 99.9393 134.709 99.9281 134.672 99.9175C134.646 99.9102 134.621 99.9033 134.594 99.896C134.559 99.8861 134.524 99.8769 134.488 99.8677C134.461 99.8607 134.434 99.8547 134.407 99.8483C134.371 99.8401 134.337 99.8323 134.301 99.8248C134.273 99.8191 134.245 99.8133 134.217 99.8076C134.182 99.8005 134.147 99.794 134.112 99.7875C134.083 99.7824 134.055 99.778 134.026 99.7736C133.991 99.7681 133.955 99.7623 133.92 99.7574C133.891 99.7537 133.861 99.7495 133.832 99.7458C133.796 99.7416 133.76 99.7374 133.725 99.7333C133.695 99.7301 133.665 99.7277 133.635 99.7242C133.599 99.7207 133.563 99.7182 133.527 99.7157C133.497 99.7139 133.467 99.7114 133.437 99.7102C133.4 99.7084 133.363 99.7068 133.326 99.7056C133.296 99.7045 133.265 99.7033 133.235 99.7032C133.198 99.7026 133.16 99.7024 133.122 99.7025C133.092 99.7024 133.061 99.7025 133.03 99.703C132.992 99.7034 132.953 99.7048 132.915 99.7062C132.884 99.7074 132.854 99.7079 132.823 99.7095C132.784 99.7112 132.744 99.7135 132.704 99.7165C132.674 99.7187 132.643 99.7202 132.613 99.7224C132.572 99.7257 132.53 99.7296 132.489 99.7335C132.459 99.7365 132.429 99.739 132.4 99.742C132.355 99.7467 132.311 99.7525 132.267 99.7589C132.24 99.7624 132.212 99.7654 132.184 99.7695C132.132 99.7768 132.079 99.7854 132.027 99.7941C132.007 99.7972 131.986 99.8 131.966 99.8039C131.892 99.8163 131.818 99.8307 131.744 99.8451C131.728 99.8482 131.712 99.852 131.696 99.8557C131.638 99.868 131.578 99.8807 131.519 99.8943C131.491 99.9007 131.463 99.9081 131.435 99.9145C131.387 99.9258 131.339 99.9381 131.29 99.9506C131.259 99.9585 131.227 99.9681 131.196 99.9766C131.15 99.9887 131.105 100.001 131.059 100.014C131.026 100.024 130.992 100.034 130.957 100.045C130.913 100.058 130.869 100.072 130.824 100.086C130.789 100.097 130.753 100.109 130.718 100.12C130.674 100.135 130.63 100.15 130.586 100.165C130.55 100.177 130.513 100.19 130.477 100.203C130.433 100.219 130.389 100.235 130.345 100.252C130.308 100.266 130.27 100.28 130.233 100.294C130.189 100.311 130.145 100.329 130.101 100.346C130.062 100.362 130.025 100.377 129.987 100.393C129.943 100.411 129.898 100.43 129.853 100.449C129.815 100.466 129.776 100.483 129.737 100.499C129.692 100.519 129.647 100.54 129.601 100.56C129.563 100.578 129.524 100.596 129.484 100.614C129.438 100.635 129.392 100.657 129.345 100.679C129.306 100.698 129.266 100.716 129.227 100.736C129.18 100.759 129.133 100.783 129.086 100.807C129.046 100.827 129.006 100.847 128.967 100.867C128.919 100.892 128.871 100.917 128.823 100.942C128.783 100.963 128.743 100.984 128.703 101.006C128.653 101.032 128.604 101.06 128.554 101.087C128.515 101.108 128.475 101.13 128.435 101.153C128.384 101.181 128.332 101.211 128.281 101.241C128.242 101.263 128.204 101.286 128.165 101.308C128.11 101.34 128.055 101.373 128 101.407C127.964 101.429 127.928 101.45 127.891 101.472C127.83 101.51 127.768 101.549 127.706 101.588C127.675 101.607 127.645 101.625 127.614 101.645C127.521 101.704 127.427 101.764 127.333 101.826C127.318 101.835 127.303 101.846 127.288 101.855C127.209 101.907 127.128 101.961 127.048 102.015C127.013 102.039 126.978 102.063 126.943 102.088C126.882 102.129 126.821 102.171 126.759 102.214C126.719 102.242 126.679 102.271 126.639 102.299C126.581 102.34 126.524 102.38 126.466 102.421C126.423 102.452 126.38 102.484 126.337 102.515C126.281 102.555 126.225 102.596 126.169 102.638C126.124 102.671 126.079 102.705 126.034 102.739C125.979 102.78 125.924 102.822 125.868 102.864C125.822 102.899 125.776 102.935 125.729 102.97C125.674 103.013 125.619 103.055 125.563 103.099C125.516 103.135 125.469 103.172 125.422 103.21C125.366 103.254 125.31 103.298 125.255 103.343C125.206 103.381 125.159 103.421 125.11 103.459C125.055 103.505 124.998 103.55 124.942 103.596C124.893 103.636 124.844 103.677 124.794 103.717C124.738 103.764 124.681 103.812 124.624 103.86C124.575 103.901 124.525 103.943 124.475 103.985C124.417 104.034 124.359 104.083 124.301 104.133C124.251 104.176 124.202 104.218 124.151 104.261C124.092 104.312 124.033 104.364 123.974 104.416C123.924 104.459 123.874 104.502 123.824 104.547C123.764 104.601 123.703 104.654 123.642 104.709C123.592 104.753 123.542 104.798 123.493 104.843C123.431 104.898 123.369 104.955 123.306 105.012C123.257 105.057 123.207 105.103 123.158 105.148C123.093 105.207 123.028 105.267 122.963 105.328C122.915 105.373 122.867 105.417 122.818 105.463C122.75 105.527 122.681 105.592 122.612 105.657C122.566 105.701 122.52 105.744 122.473 105.788C122.396 105.86 122.319 105.935 122.243 106.01C122.203 106.048 122.165 106.084 122.125 106.122C122.009 106.236 121.891 106.351 121.772 106.467C87.0549 132.105 113.101 80.7956 116.674 64.9396C117.031 60.4911 114.441 56.3313 110.293 54.6879C97.493 49.6172 43.4082 104.45 41.5517 50.7438C41.4195 50.9323 41.2879 51.1211 41.1576 51.3107C41.1196 51.366 41.0816 51.4213 41.0435 51.4767C40.9465 51.6177 40.8507 51.7595 40.755 51.9013C40.7176 51.957 40.6796 52.0123 40.6422 52.068C40.3855 52.4495 40.1338 52.8329 39.8846 53.2178C39.8489 53.2736 39.8136 53.3287 39.7773 53.3842C39.684 53.5291 39.5918 53.6738 39.4999 53.8196C39.4656 53.8745 39.4303 53.9296 39.396 53.9845C39.2735 54.1786 39.1519 54.3741 39.0314 54.5693L39.0307 54.5706C38.9105 54.7652 38.792 54.9598 38.6742 55.1549C38.6406 55.2101 38.6072 55.2664 38.5736 55.3217C38.4849 55.4693 38.3965 55.6179 38.3091 55.7663C38.2771 55.8216 38.2438 55.8762 38.2112 55.9312C38.0953 56.1291 37.9797 56.3263 37.866 56.5246C37.8645 56.5272 37.863 56.5298 37.8615 56.5324C37.7491 56.7271 37.6387 56.923 37.5282 57.1188C37.4955 57.1754 37.4645 57.2322 37.4324 57.2892C37.3486 57.4388 37.2652 57.5894 37.182 57.7394C37.1518 57.7949 37.1205 57.8506 37.0902 57.906C36.9808 58.106 36.8711 58.3066 36.7637 58.5076C36.7607 58.5128 36.7573 58.5187 36.7543 58.5239C36.6496 58.7187 36.5466 58.9137 36.4443 59.109C36.4139 59.1661 36.3838 59.2243 36.3541 59.2818C36.2749 59.434 36.196 59.5856 36.1181 59.7385C36.0892 59.7947 36.0606 59.8503 36.0316 59.9065C35.9285 60.1092 35.8253 60.3118 35.7246 60.515C35.7204 60.5221 35.7166 60.5303 35.7131 60.5379C35.6161 60.7328 35.5199 60.9282 35.4246 61.1232C35.3958 61.1821 35.3673 61.2421 35.3385 61.301C35.2643 61.4535 35.1914 61.6068 35.1179 61.7597C35.0909 61.817 35.0632 61.874 35.0362 61.9313C34.9397 62.1361 34.8432 62.3408 34.7484 62.5457C34.7434 62.5558 34.739 62.5663 34.7337 62.5771C34.6442 62.7712 34.555 62.9663 34.4675 63.1614C34.4403 63.2221 34.4131 63.2828 34.3858 63.3435C34.317 63.4974 34.2484 63.6523 34.1802 63.8065C34.1545 63.8646 34.1291 63.922 34.1041 63.9805C34.0135 64.1869 33.9246 64.3935 33.8364 64.6004C33.8305 64.6152 33.8243 64.629 33.8183 64.6438C33.7367 64.8363 33.6553 65.0298 33.5748 65.2221C33.5491 65.2845 33.5232 65.346 33.4975 65.4084C33.4333 65.5632 33.3698 65.7184 33.3073 65.8733C33.2835 65.9326 33.2591 65.9914 33.2353 66.0506C33.153 66.2549 33.0717 66.4588 32.9917 66.6636C32.2618 68.5248 31.6077 70.4097 31.0299 72.3127C31.0299 72.3127 31.0299 72.3127 31.0295 72.3133C27.9234 82.5476 27.0195 93.3241 28.3643 103.914C28.3613 103.909 28.3585 103.905 28.3555 103.899C29.4754 112.73 32.1585 121.431 36.4331 129.58C49.6329 154.741 75.7907 170.413 104.204 170.183C104.545 170.18 104.885 170.174 105.225 170.167C105.247 170.166 105.268 170.166 105.289 170.165C105.614 170.158 105.94 170.149 106.264 170.137C106.277 170.137 106.289 170.137 106.302 170.136C106.964 170.113 107.624 170.08 108.283 170.039C108.334 170.036 108.386 170.033 108.437 170.029C108.745 170.01 109.052 169.989 109.359 169.965C109.373 169.964 109.386 169.963 109.4 169.963C109.724 169.938 110.047 169.911 110.37 169.881C110.423 169.877 110.474 169.872 110.526 169.867C110.789 169.842 111.052 169.817 111.315 169.79C111.389 169.782 111.462 169.775 111.536 169.767C112.151 169.703 112.765 169.631 113.376 169.551C113.467 169.539 113.558 169.527 113.649 169.515C113.871 169.485 114.092 169.454 114.314 169.423C114.406 169.41 114.499 169.397 114.591 169.383C114.88 169.341 115.169 169.297 115.458 169.252C115.541 169.239 115.624 169.224 115.707 169.212C115.92 169.177 116.134 169.142 116.347 169.106C116.466 169.086 116.585 169.065 116.704 169.044C116.893 169.011 117.082 168.977 117.272 168.942C117.383 168.921 117.495 168.902 117.606 168.881C117.874 168.83 118.141 168.778 118.408 168.725C118.539 168.699 118.67 168.672 118.8 168.645C118.96 168.612 119.12 168.579 119.279 168.546C119.422 168.516 119.564 168.485 119.707 168.455C119.862 168.421 120.017 168.386 120.171 168.352C120.408 168.299 120.646 168.244 120.883 168.189C121.029 168.155 121.174 168.121 121.32 168.086C121.481 168.048 121.641 168.008 121.801 167.969C121.922 167.939 122.042 167.909 122.163 167.878C122.329 167.836 122.496 167.794 122.662 167.75C122.754 167.726 122.845 167.702 122.938 167.678C123.266 167.591 123.593 167.502 123.92 167.412C124.009 167.387 124.099 167.362 124.188 167.337C124.372 167.285 124.555 167.233 124.739 167.179C124.82 167.156 124.901 167.132 124.981 167.108C125.603 166.925 126.221 166.735 126.837 166.537C126.892 166.518 126.949 166.5 127.004 166.482C127.21 166.415 127.416 166.348 127.621 166.279C127.647 166.271 127.672 166.262 127.698 166.253C128.364 166.029 129.026 165.797 129.685 165.555C129.709 165.546 129.734 165.537 129.759 165.528C141.894 161.065 152.742 153.552 161.203 143.67C165.121 139.094 168.527 134.009 171.311 128.485L171.309 128.491Z" fill="#8A01D3"/>
<path fill-rule="evenodd" clip-rule="evenodd" d="M123.659 32.8545C128.756 32.2287 133.394 35.8532 134.02 40.9499C134.646 46.0466 131.022 50.6854 125.925 51.3112C120.828 51.9371 116.189 48.3125 115.564 43.2158C114.938 38.1192 118.562 33.4804 123.659 32.8545Z" fill="#8A01D3"/>
<mask id="mask0_1499_29162" style="mask-type:luminance" maskUnits="userSpaceOnUse" x="115" y="32" width="20" height="20">
<path d="M123.655 32.8512C128.752 32.2254 133.391 35.8499 134.017 40.9466C134.643 46.0433 131.018 50.6821 125.921 51.3079C120.825 51.9338 116.186 48.3092 115.56 43.2126C114.934 38.1159 118.559 33.4771 123.655 32.8512Z" fill="white"/>
</mask>
<g mask="url(#mask0_1499_29162)">
<path d="M139.153 38.2329L120.939 27.7171L110.423 45.9311L128.637 56.4469L139.153 38.2329Z" fill="#8A01D3"/>
</g>
<path fill-rule="evenodd" clip-rule="evenodd" d="M136.045 82.86C138.593 82.5471 140.913 84.3596 141.225 86.9075C141.538 89.4559 139.725 91.7756 137.177 92.0885C134.629 92.4015 132.309 90.589 131.996 88.0406C131.683 85.4923 133.496 83.1726 136.044 82.8603" fill="#8A01D3"/>
<mask id="mask1_1499_29162" style="mask-type:luminance" maskUnits="userSpaceOnUse" x="131" y="82" width="11" height="11">
<path d="M136.045 82.8617C138.593 82.5488 140.913 84.3613 141.225 86.9092C141.538 89.4576 139.726 91.7773 137.178 92.0902C134.629 92.4031 132.309 90.5907 131.997 88.0423C131.684 85.494 133.496 83.1743 136.044 82.862" fill="white"/>
</mask>
<g mask="url(#mask1_1499_29162)">
<path d="M143.794 85.5494L134.687 80.2917L129.43 89.3984L138.536 94.6561L143.794 85.5494Z" fill="#8A01D3"/>
</g>
<path d="M71.4215 226.514V190.702H60.7442L52.0955 213.038L43.4469 190.702H32.823V226.514H40.4039V200.742L50.4405 226.514H53.7505L63.7872 200.742V226.514H71.4215Z" fill="#8A01D3"/>
<path d="M103.692 226.514V219.91H86.0744V211.588H103.318V205.038H86.0744V197.253H103.692V190.702H78.4935V226.514H103.692Z" fill="#8A01D3"/>
<path d="M125.474 226.514V197.414H135.831V190.702H107.429V197.414H117.84V226.514H125.474Z" fill="#8A01D3"/>
<path d="M170.456 226.514L156.736 190.702H147.233L133.46 226.514H141.788L144.03 220.339H159.939L162.182 226.514H170.456ZM157.857 213.736H146.059L151.985 197.306L157.857 213.736Z" fill="#8A01D3"/>
<path d="M55.4301 259.554V234.761H52.2516L43.8986 255.317L35.5087 234.761H32.3671V259.554H34.4738V237.549L43.4921 259.554H44.3052L53.2865 237.549V259.554H55.4301Z" fill="#8A01D3"/>
<path d="M81.8579 259.554L71.7679 234.761H69.1437L59.0536 259.554H61.4191L63.8954 253.458H77.0162L79.4925 259.554H81.8579ZM76.3509 251.525H64.5607L70.4373 236.843L76.3509 251.525Z" fill="#8A01D3"/>
<path d="M83.5159 256.06C85.4009 258.365 88.4686 260 92.5342 260C99.187 260 101.294 256.171 101.294 252.975C101.294 247.957 96.9324 246.693 92.9407 245.541C89.5774 244.649 86.5097 243.794 86.5097 240.857C86.5097 238.181 88.986 236.285 92.2754 236.285C95.0474 236.285 97.5607 237.252 99.3348 239.408L100.739 237.847C98.8173 235.654 96.0823 234.353 92.3863 234.353C87.9142 234.353 84.2921 236.917 84.2921 240.969C84.2921 245.541 88.4316 246.656 92.3124 247.734C95.7866 248.663 99.0761 249.63 99.0761 253.124C99.0761 255.242 97.6346 258.067 92.5711 258.067C89.0599 258.067 86.4727 256.32 84.8834 254.462L83.5159 256.06Z" fill="#8A01D3"/>
<path d="M114.678 259.554V236.694H122.735V234.761H104.477V236.694H112.534V259.554H114.678Z" fill="#8A01D3"/>
<path d="M142.747 259.554V257.621H129.22V247.808H142.488V245.875H129.22V236.694H142.747V234.761H127.113V259.554H142.747Z" fill="#8A01D3"/>
<path d="M164.977 259.554L157.844 249.146C161.503 248.998 164.681 246.507 164.681 242.01C164.681 237.475 161.429 234.761 157.178 234.761H147.975V259.554H150.082V249.295H155.515L162.427 259.554H164.977ZM162.464 242.01C162.464 245.132 160.246 247.362 156.993 247.362H150.082V236.694H156.993C160.246 236.694 162.464 238.887 162.464 242.01Z" fill="#8A01D3"/>
</svg>
