<svg width="24" height="24" viewBox="0 0 24 24" fill="none" xmlns="http://www.w3.org/2000/svg">
<g clip-path="url(#clip0_1165_35411)">
<path d="M23.3299 14.17C23.1099 13.6 22.8599 13.04 22.6799 12.46C22.5999 12.22 22.6099 11.99 22.6599 11.75C22.7699 11.22 22.9899 10.74 23.1999 10.25C23.6299 9.27998 23.5599 8.37998 22.7999 7.60998C22.4199 7.22998 21.9499 6.96998 21.4999 6.67998C21.1199 6.43998 20.8099 6.11998 20.6899 5.69998C20.5299 5.10998 20.4499 4.49998 20.3199 3.89998C20.1599 3.16998 19.7299 2.64998 19.0099 2.44998C18.3899 2.27998 17.7299 2.30998 17.0899 2.29998C16.7299 2.29998 16.3999 2.19998 16.0999 1.99998C15.4899 1.56998 15.0399 0.969984 14.4999 0.469984C14.1599 0.149984 13.7699 -0.0300161 13.2999 0.0099839C12.8599 -0.0400161 12.4799 0.0699839 12.0999 0.299984C11.6299 0.599984 11.1399 0.849984 10.6599 1.12998C10.3399 1.24998 10.0099 1.28998 9.68986 1.23998C9.31986 1.17998 8.96986 1.05998 8.59986 0.989984C8.19986 0.909984 7.80986 0.629984 7.37986 0.909984C6.68986 1.43998 6.42986 2.25998 6.06986 2.98998C5.77986 3.55998 5.36986 3.93998 4.75986 4.12998C4.22986 4.29998 3.68986 4.43998 3.19986 4.68998C2.45986 5.06998 2.09986 5.87998 2.20986 6.71998C2.29986 7.36998 2.38986 8.01998 2.30986 8.67998C2.25986 9.07998 2.00986 9.36998 1.77986 9.67998C1.42986 10.14 0.999859 10.53 0.749859 11.06C0.439859 11.73 0.489859 12.39 0.939859 12.99C1.26986 13.43 1.62986 13.85 1.95986 14.3C2.24986 14.7 2.36986 15.13 2.33986 15.65C2.30986 16.36 2.06986 17.06 2.23986 17.78C2.40986 18.5 2.85986 18.95 3.52986 19.2C3.93986 19.35 4.35986 19.49 4.77986 19.62C5.38986 19.79 5.79986 20.18 6.06986 20.74C6.19986 21 6.34986 21.25 6.45986 21.52C6.76986 22.29 7.27986 22.83 8.09986 23.04C8.18986 23.04 8.27986 23.03 8.36986 23.01C8.99986 22.91 9.60986 22.66 10.2599 22.67C10.8999 22.81 11.4199 23.22 11.9799 23.53C12.5299 23.83 13.0699 24.18 13.7399 23.88C13.9599 23.75 14.2499 23.75 14.4299 23.55C14.7699 23.19 15.1299 22.85 15.4599 22.48C15.7499 22.16 16.0799 21.84 16.5599 21.76C17.1599 21.66 17.7699 21.63 18.3799 21.64C18.9199 21.65 19.3799 21.44 19.7499 21.08C19.8899 20.94 20.0699 20.86 20.1599 20.62C20.3799 20.03 20.4299 19.41 20.5499 18.8C20.6599 18.29 20.7999 17.8 21.2299 17.47C21.6799 17.13 22.1599 16.81 22.6299 16.49C23.3899 15.97 23.6899 15.02 23.3499 14.16L23.3299 14.17ZM18.8999 7.41998C19.1899 7.70998 19.1899 8.18998 18.8999 8.47998L11.9399 15.44C11.3599 16.02 10.4099 16.02 9.81986 15.44L6.60986 12.23C6.31986 11.94 6.31986 11.46 6.60986 11.17C6.89986 10.88 7.37986 10.88 7.66986 11.17L10.8799 14.38L17.8399 7.41998C18.1299 7.12998 18.6099 7.12998 18.8999 7.41998Z" fill="#8A01D3"/>
</g>
<defs>
<clipPath id="clip0_1165_35411">
<rect width="24" height="24" fill="white"/>
</clipPath>
</defs>
</svg>
