<svg width="56" height="56" viewBox="0 0 56 56" fill="none" xmlns="http://www.w3.org/2000/svg">
<rect width="56" height="56" rx="28" fill="#F3F3F3"/>
<path d="M51 38.3481C50.0892 40.1574 48.9747 41.8209 47.6913 43.3188C44.9208 46.5563 41.3703 49.0168 37.3976 50.4781C37.3893 50.4815 37.381 50.4848 37.3727 50.4864C37.1574 50.566 36.9405 50.6422 36.7219 50.7151C36.7136 50.7184 36.7053 50.7201 36.6971 50.7234C36.6308 50.7466 36.5629 50.7681 36.495 50.7896C36.4768 50.7963 36.4586 50.8012 36.4404 50.8079C36.2383 50.8725 36.0363 50.9354 35.8326 50.9951C35.8061 51.0034 35.7796 51.01 35.7531 51.0183C35.6935 51.0365 35.6339 51.0531 35.5726 51.0697C35.5428 51.0779 35.5147 51.0862 35.4849 51.0945C35.3772 51.1243 35.2712 51.1542 35.1636 51.1823C35.1338 51.1906 35.104 51.1989 35.0742 51.2055C35.0195 51.2204 34.9649 51.2337 34.9102 51.2469C34.8705 51.2569 34.8307 51.2668 34.791 51.2768C34.738 51.29 34.6867 51.3033 34.6337 51.3149C34.5857 51.3265 34.5376 51.3381 34.4913 51.348C34.4134 51.3662 34.3356 51.3845 34.2578 51.401C34.2081 51.4126 34.1568 51.4242 34.1054 51.4342C34.059 51.4441 34.0127 51.454 33.9647 51.464C33.9117 51.4756 33.8603 51.4855 33.8073 51.4971C33.7643 51.5054 33.7212 51.5154 33.6782 51.5236C33.5904 51.5402 33.5026 51.5584 33.4149 51.575C33.3784 51.5816 33.342 51.5883 33.3056 51.5949C33.2426 51.6065 33.1814 51.6181 33.1201 51.628C33.082 51.6346 33.0423 51.6413 33.0025 51.6479C32.933 51.6595 32.8634 51.6711 32.7922 51.6827C32.7657 51.6877 32.7376 51.691 32.7111 51.696C32.6167 51.7109 32.5223 51.7258 32.4279 51.739C32.3981 51.744 32.3683 51.7473 32.3368 51.7523C32.2639 51.7622 32.1911 51.7722 32.1182 51.7821C32.0884 51.7854 32.0586 51.7904 32.0288 51.7937C31.8284 51.8202 31.628 51.8434 31.426 51.865C31.4012 51.8666 31.378 51.8699 31.3531 51.8732C31.267 51.8815 31.1809 51.8898 31.0948 51.8981C31.0782 51.8997 31.0617 51.9014 31.0435 51.9031C30.9375 51.913 30.8315 51.9213 30.7255 51.9296C30.7205 51.9296 30.7172 51.9296 30.7123 51.9296C30.6112 51.9379 30.5119 51.9445 30.4109 51.9511C30.3943 51.9511 30.3777 51.9528 30.3612 51.9544C30.1459 51.9677 29.929 51.9793 29.712 51.9859C29.7087 51.9859 29.7037 51.9859 29.7004 51.9859C29.5944 51.9892 29.4885 51.9925 29.3808 51.9942C29.3742 51.9942 29.3676 51.9942 29.361 51.9942C29.25 51.9975 29.1374 51.9992 29.0264 51.9992C19.7247 52.0754 11.1598 46.9407 6.83926 38.6994C5.43993 36.0301 4.56059 33.1803 4.19461 30.2874C4.19461 30.289 4.19627 30.2907 4.19793 30.2924C3.75743 26.8229 4.05385 23.2937 5.07064 19.9418C5.25943 19.3188 5.47471 18.7008 5.71317 18.0911C5.73967 18.0248 5.76616 17.9569 5.79266 17.8906C5.80094 17.8707 5.80922 17.8525 5.81584 17.8326C5.83572 17.7813 5.85724 17.7315 5.87877 17.6802C5.88705 17.6603 5.89533 17.6404 5.90361 17.6189C5.93011 17.5559 5.95661 17.493 5.9831 17.43C5.98476 17.425 5.98641 17.4201 5.98973 17.4167C6.01788 17.3488 6.04769 17.2809 6.07749 17.2129C6.08577 17.1931 6.09405 17.1748 6.10233 17.1566C6.12386 17.1069 6.14705 17.0555 6.17023 17.0042C6.17851 16.9843 6.18845 16.9644 6.19673 16.9445C6.22488 16.8799 6.25469 16.8169 6.28449 16.754C6.28615 16.7507 6.28781 16.7474 6.28946 16.744C6.32093 16.6778 6.35239 16.6098 6.38386 16.5436C6.39214 16.5253 6.40207 16.5055 6.41035 16.4872C6.43519 16.4375 6.45838 16.3862 6.48322 16.3365C6.49315 16.3166 6.50143 16.2967 6.51137 16.2785C6.54283 16.2138 6.5743 16.1509 6.60576 16.0863C6.60576 16.083 6.60742 16.0813 6.60907 16.0796C6.64219 16.0134 6.67531 15.9471 6.71009 15.8808C6.72002 15.8626 6.7283 15.8444 6.73824 15.8261C6.76308 15.7764 6.78958 15.7267 6.81607 15.677C6.82601 15.6588 6.83594 15.6389 6.84588 15.6207C6.879 15.5561 6.91378 15.4931 6.9469 15.4285C6.9469 15.4268 6.94855 15.4252 6.95021 15.4235C6.98499 15.3572 7.02142 15.2926 7.05785 15.2263C7.06779 15.2081 7.07772 15.1899 7.08766 15.1717C7.11415 15.122 7.14231 15.0739 7.1688 15.0242C7.17874 15.006 7.18867 14.9878 7.20027 14.9679C7.2367 14.9033 7.27313 14.8386 7.30956 14.7757C7.30956 14.7757 7.30956 14.7757 7.30956 14.774C7.34599 14.7094 7.38408 14.6448 7.42217 14.5802C7.43211 14.5619 7.4437 14.5437 7.45364 14.5255C7.48179 14.4774 7.5116 14.4277 7.53975 14.3797C7.55134 14.3615 7.56128 14.3432 7.57287 14.325C7.61096 14.2604 7.6507 14.1974 7.68879 14.1328C7.72853 14.0682 7.76828 14.0052 7.80802 13.9406C7.81961 13.9224 7.83121 13.9042 7.8428 13.8859C7.87261 13.8379 7.90241 13.7915 7.93388 13.7434C7.94547 13.7252 7.95706 13.707 7.96865 13.6888C8.0498 13.5628 8.1326 13.4369 8.21705 13.3126C8.22865 13.2944 8.2419 13.2762 8.25349 13.258C8.28495 13.2116 8.31642 13.1652 8.34788 13.1188C8.36113 13.1006 8.37272 13.0823 8.38597 13.0641C8.42902 13.0012 8.47208 12.9398 8.51514 12.8785C9.12289 30.4713 26.8289 12.5091 31.0203 14.1709C32.3782 14.7094 33.2261 16.0714 33.1102 17.5294C31.941 22.7237 23.4126 39.5295 34.7794 31.1324C34.8175 31.0943 34.8572 31.0562 34.8953 31.0197C34.9086 31.0065 34.9202 30.9949 34.9334 30.9833C34.9583 30.9584 34.9831 30.9336 35.0096 30.9104C35.0245 30.8955 35.0394 30.8822 35.056 30.8673C35.0775 30.8458 35.1007 30.8242 35.1239 30.8043C35.1404 30.7894 35.1553 30.7745 35.1719 30.7596C35.1934 30.7397 35.2149 30.7198 35.2348 30.7C35.2514 30.685 35.2679 30.6701 35.2828 30.6552C35.3027 30.637 35.3242 30.6171 35.3441 30.5989C35.3607 30.584 35.3772 30.5691 35.3921 30.5542C35.412 30.5359 35.4319 30.5194 35.4517 30.5011C35.4683 30.4862 35.4849 30.473 35.5014 30.4581C35.5213 30.4415 35.5412 30.4249 35.5594 30.4083C35.5759 30.3951 35.5925 30.3802 35.6091 30.3669C35.6273 30.3504 35.6472 30.3338 35.6654 30.3189C35.6819 30.3056 35.6985 30.2924 35.7134 30.2775C35.7316 30.2625 35.7498 30.246 35.7697 30.2311C35.7863 30.2178 35.8028 30.2045 35.8177 30.1913C35.8359 30.1764 35.8542 30.1615 35.8724 30.1466C35.8889 30.1333 35.9038 30.1217 35.9204 30.1084C35.9386 30.0935 35.9568 30.0786 35.975 30.0654C35.9899 30.0521 36.0065 30.0405 36.0214 30.0289C36.0396 30.014 36.0578 30.0008 36.0761 29.9875C36.091 29.9759 36.1059 29.9643 36.1208 29.9527C36.139 29.9394 36.1572 29.9245 36.1754 29.9113C36.1903 29.8997 36.2052 29.8881 36.2201 29.8781C36.2383 29.8649 36.2566 29.8516 36.2748 29.8384C36.2897 29.8284 36.3029 29.8185 36.3162 29.8086C36.3361 29.7953 36.3543 29.782 36.3725 29.7688C36.3857 29.7588 36.399 29.7506 36.4122 29.7406C36.4321 29.7274 36.452 29.7125 36.4718 29.6992C36.4834 29.6909 36.495 29.6826 36.5066 29.676C36.5331 29.6578 36.5596 29.6412 36.5861 29.623C36.5911 29.6197 36.596 29.6164 36.601 29.613C36.6325 29.5932 36.6623 29.5733 36.6938 29.5534C36.7037 29.5468 36.7136 29.5418 36.7236 29.5352C36.7434 29.5219 36.765 29.5103 36.7848 29.4971C36.7964 29.4904 36.808 29.4821 36.8213 29.4755C36.8395 29.4639 36.8577 29.454 36.8759 29.4424C36.8892 29.4358 36.9008 29.4275 36.914 29.4208C36.9306 29.4109 36.9471 29.401 36.9637 29.3927C36.9769 29.3844 36.9902 29.3778 37.0018 29.3711C37.0183 29.3629 37.0349 29.3529 37.0498 29.3446C37.063 29.338 37.0763 29.3314 37.0895 29.3231C37.1061 29.3148 37.121 29.3065 37.1376 29.2982C37.1508 29.2916 37.1641 29.285 37.1757 29.2784C37.1906 29.2701 37.2071 29.2618 37.222 29.2552C37.2353 29.2485 37.2469 29.2419 37.2601 29.2369C37.275 29.2303 37.2899 29.222 37.3048 29.2154C37.3181 29.2104 37.3313 29.2038 37.3429 29.1972C37.3578 29.1905 37.3727 29.1839 37.3876 29.1773C37.4009 29.1723 37.4125 29.1657 37.4257 29.1607C37.4406 29.1541 37.4555 29.1491 37.4688 29.1425C37.482 29.1375 37.4936 29.1325 37.5069 29.1276C37.5218 29.1209 37.535 29.116 37.5499 29.111C37.5615 29.106 37.5747 29.1011 37.5863 29.0978C37.6012 29.0928 37.6145 29.0862 37.6294 29.0812C37.641 29.0762 37.6542 29.0729 37.6658 29.0679C37.6807 29.063 37.694 29.058 37.7089 29.053C37.7205 29.0497 37.7321 29.0447 37.7437 29.0414C37.7586 29.0364 37.7735 29.0331 37.7867 29.0282C37.7983 29.0248 37.8099 29.0215 37.8198 29.0182C37.8347 29.0149 37.8496 29.0099 37.8645 29.0066C37.8745 29.0033 37.8861 29 37.896 28.9983C37.9126 28.9934 37.9275 28.9901 37.944 28.9867C37.954 28.9851 37.9622 28.9818 37.9722 28.9801C37.9921 28.9751 38.0103 28.9718 38.0302 28.9669C38.0351 28.9669 38.0401 28.9635 38.0451 28.9635C38.0699 28.9586 38.0931 28.9536 38.1179 28.9503C38.1245 28.9503 38.1312 28.9486 38.1378 28.947C38.1543 28.9437 38.1726 28.942 38.1891 28.9387C38.1974 28.9387 38.2073 28.937 38.2156 28.9354C38.2305 28.9337 38.2438 28.9321 38.2587 28.9304C38.2686 28.9304 38.2786 28.9287 38.2885 28.9271C38.3017 28.9271 38.315 28.9238 38.3282 28.9238C38.3382 28.9238 38.3481 28.9238 38.358 28.9221C38.3713 28.9221 38.3845 28.9205 38.3978 28.9205C38.4077 28.9205 38.4177 28.9205 38.4276 28.9205C38.4408 28.9205 38.4524 28.9205 38.4657 28.9205C38.4756 28.9205 38.4855 28.9205 38.4955 28.9205C38.5071 28.9205 38.5203 28.9205 38.5319 28.9205C38.5419 28.9205 38.5518 28.9205 38.5617 28.9205C38.5733 28.9205 38.5866 28.9205 38.5982 28.9205C38.6081 28.9205 38.618 28.9205 38.628 28.9221C38.6396 28.9221 38.6511 28.9221 38.6627 28.9254C38.6727 28.9254 38.6826 28.9271 38.6926 28.9288C38.7041 28.9288 38.7157 28.9321 38.7273 28.9321C38.7373 28.9321 38.7472 28.9354 38.7555 28.9354C38.7671 28.937 38.7787 28.9387 38.7903 28.9403C38.8002 28.9403 38.8085 28.9437 38.8184 28.9453C38.83 28.947 38.8416 28.9503 38.8532 28.9519C38.8615 28.9536 38.8714 28.9553 38.8813 28.9569C38.8929 28.9602 38.9045 28.9619 38.9161 28.9652C38.926 28.9669 38.9343 28.9685 38.9426 28.9718C38.9542 28.9751 38.9658 28.9785 38.9774 28.9818C38.9857 28.9851 38.9939 28.9867 39.0022 28.9884C39.0138 28.9917 39.0254 28.995 39.037 29C39.0453 29.0033 39.0536 29.005 39.0602 29.0066C39.0734 29.0116 39.085 29.0149 39.0983 29.0199C39.1049 29.0215 39.1115 29.0248 39.1181 29.0265C39.133 29.0315 39.148 29.0381 39.1629 29.0431C39.1678 29.0447 39.1711 29.0464 39.1761 29.048C39.196 29.0563 39.2142 29.0646 39.2341 29.0729C39.2374 29.0746 39.2423 29.0762 39.2457 29.0779C39.2606 29.0845 39.2755 29.0911 39.2904 29.0978C39.297 29.1011 39.3036 29.1044 39.3102 29.1077C39.3218 29.1143 39.3351 29.1193 39.3467 29.1259C39.355 29.1292 39.3616 29.1342 39.3682 29.1375C39.3798 29.1441 39.3897 29.1491 39.4013 29.1557C39.4079 29.1607 39.4162 29.164 39.4245 29.169C39.4344 29.1756 39.446 29.1823 39.456 29.1872C39.4643 29.1922 39.4709 29.1972 39.4792 29.2021C39.4891 29.2088 39.499 29.2154 39.509 29.222C39.5172 29.227 39.5239 29.232 39.5321 29.2369C39.5421 29.2436 39.552 29.2502 39.562 29.2568C39.5702 29.2618 39.5769 29.2668 39.5851 29.2734C39.5951 29.28 39.605 29.2883 39.6149 29.2949C39.6216 29.2999 39.6299 29.3065 39.6381 29.3115C39.6481 29.3181 39.658 29.3264 39.6663 29.333C39.6729 29.3397 39.6812 29.3446 39.6878 29.3513C39.6978 29.3595 39.706 29.3662 39.716 29.3745C39.7226 29.3811 39.7309 29.386 39.7375 29.3927C39.7474 29.401 39.7557 29.4092 39.7656 29.4175C39.7723 29.4242 39.7806 29.4308 39.7872 29.4374C39.7971 29.4457 39.8054 29.454 39.8153 29.4623C39.8219 29.4689 39.8286 29.4755 39.8369 29.4821C39.8468 29.4904 39.8551 29.5004 39.865 29.5087C39.8716 29.5153 39.8783 29.5219 39.8849 29.5285C39.8948 29.5368 39.9031 29.5468 39.913 29.5567C39.9197 29.5633 39.9263 29.57 39.9329 29.5766C39.9428 29.5865 39.9528 29.5965 39.9627 29.6064C39.9693 29.613 39.9743 29.6197 39.9809 29.6246C39.9909 29.6362 40.0008 29.6478 40.0124 29.6594C40.0174 29.6644 40.0223 29.671 40.0273 29.676C40.0389 29.6893 40.0521 29.7042 40.0637 29.7191C40.067 29.7224 40.0704 29.7257 40.072 29.729C40.0869 29.7472 40.1018 29.7655 40.1184 29.7837C40.1184 29.7837 40.1184 29.7854 40.12 29.787C40.1349 29.8036 40.1482 29.8218 40.1631 29.84C40.1681 29.845 40.1714 29.8516 40.1763 29.8566C40.1863 29.8699 40.1979 29.8831 40.2078 29.8964C40.2128 29.903 40.2177 29.9096 40.2227 29.9179C40.2326 29.9312 40.2409 29.9428 40.2509 29.956C40.2558 29.9643 40.2624 29.9709 40.2674 29.9792C40.2757 29.9908 40.2856 30.0024 40.2939 30.0157C40.2989 30.0239 40.3055 30.0322 40.3105 30.0405C40.3188 30.0521 40.327 30.0654 40.3353 30.077C40.3403 30.0853 40.3469 30.0935 40.3535 30.1035C40.3618 30.1151 40.3701 30.1267 40.3784 30.1399C40.385 30.1482 40.39 30.1582 40.3966 30.1664C40.4049 30.178 40.4131 30.1913 40.4198 30.2029C40.4264 30.2128 40.4314 30.2211 40.438 30.2311C40.4463 30.2427 40.4545 30.2559 40.4612 30.2692C40.4661 30.2791 40.4728 30.2874 40.4777 30.2973C40.486 30.3106 40.4926 30.3222 40.5009 30.3354C40.5059 30.3454 40.5125 30.3537 40.5175 30.3636C40.5258 30.3769 40.5324 30.3901 40.5407 30.4034C40.5456 30.4133 40.5522 30.4216 40.5572 30.4315C40.5655 30.4448 40.5721 30.4581 40.5804 30.473C40.5854 30.4829 40.5903 30.4912 40.597 30.5011C40.6052 30.5144 40.6135 30.5293 40.6201 30.5426C40.6251 30.5525 40.6301 30.5608 40.6367 30.5707C40.645 30.5856 40.6533 30.6005 40.6599 30.6138C40.6649 30.6221 40.6698 30.632 40.6748 30.642C40.6831 30.6569 40.6914 30.6734 40.6996 30.6884C40.7046 30.6966 40.7079 30.7066 40.7129 30.7149C40.7212 30.7314 40.7311 30.7497 40.7394 30.7662C40.7427 30.7745 40.7477 30.7811 40.751 30.7878C40.7609 30.8077 40.7725 30.8292 40.7824 30.8507C40.7841 30.854 40.7857 30.859 40.7891 30.8623C40.8139 30.9137 40.8387 30.9651 40.8636 31.0164C40.8669 31.023 40.8685 31.028 40.8719 31.0346C40.8818 31.0545 40.8901 31.0744 40.9 31.0943C40.9033 31.1026 40.9083 31.1109 40.9116 31.1191C40.9199 31.1374 40.9282 31.1539 40.9364 31.1722C40.9414 31.1821 40.9447 31.192 40.9497 31.2003C40.958 31.2169 40.9646 31.2351 40.9729 31.2517C40.9778 31.2616 40.9812 31.2716 40.9861 31.2815C40.9927 31.2981 41.001 31.3147 41.0076 31.3312C41.0126 31.3412 41.0176 31.3528 41.0209 31.3627C41.0275 31.3793 41.0358 31.3958 41.0424 31.4124C41.0474 31.424 41.0524 31.434 41.0557 31.4456C41.0623 31.4621 41.0706 31.4787 41.0772 31.4953C41.0822 31.5069 41.0871 31.5185 41.0921 31.5284C41.0987 31.545 41.1054 31.5615 41.112 31.5781C41.1169 31.5897 41.1219 31.6013 41.1269 31.6129C41.1335 31.6295 41.1401 31.646 41.1468 31.6626C41.1517 31.6742 41.1567 31.6858 41.1617 31.6974C41.1683 31.714 41.1749 31.7305 41.1815 31.7488C41.1865 31.7604 41.1915 31.772 41.1948 31.7836C41.2014 31.8001 41.208 31.8183 41.2146 31.8349C41.2196 31.8465 41.2229 31.8581 41.2279 31.8697C41.2345 31.8879 41.2428 31.9062 41.2494 31.9244C41.2544 31.936 41.2577 31.9459 41.2627 31.9575C41.2693 31.9758 41.2776 31.994 41.2842 32.0139C41.2875 32.0238 41.2925 32.0354 41.2958 32.0453C41.3024 32.0652 41.3107 32.0835 41.319 32.1033C41.3223 32.1133 41.3256 32.1232 41.3306 32.1332C41.3388 32.1547 41.3471 32.1762 41.3554 32.1978C41.3587 32.2061 41.362 32.2143 41.3653 32.2226C41.3753 32.2491 41.3852 32.274 41.3935 32.3005C41.3935 32.3055 41.3968 32.3088 41.3985 32.3121C41.4217 32.3734 41.4432 32.4331 41.4647 32.4944C41.4647 32.4977 41.468 32.501 41.468 32.5043C41.478 32.5308 41.4879 32.5573 41.4978 32.5855C41.5011 32.5938 41.5045 32.6021 41.5061 32.6103C41.5144 32.6335 41.5227 32.6551 41.5293 32.6783C41.5326 32.6882 41.5359 32.6965 41.5392 32.7064C41.5459 32.728 41.5541 32.7495 41.5624 32.7711C41.5657 32.781 41.5707 32.7926 41.574 32.8025C41.5806 32.8224 41.5889 32.8423 41.5955 32.8638C41.6005 32.8754 41.6038 32.887 41.6071 32.8986C41.6138 32.9185 41.6204 32.9384 41.627 32.9566C41.632 32.9682 41.6353 32.9798 41.6386 32.9914C41.6452 33.0113 41.6518 33.0312 41.6585 33.0511C41.6618 33.0627 41.6667 33.0743 41.6701 33.0859C41.6767 33.1057 41.6833 33.1256 41.6899 33.1455C41.6949 33.1571 41.6982 33.1687 41.7015 33.1786C41.7081 33.1985 41.7164 33.2201 41.723 33.24C41.7264 33.2516 41.7313 33.2632 41.7346 33.2747C41.7413 33.2946 41.7479 33.3145 41.7545 33.3344C41.7578 33.346 41.7628 33.3576 41.7661 33.3692C41.7727 33.3907 41.781 33.4123 41.7876 33.4338C41.7909 33.4437 41.7943 33.452 41.7976 33.462C41.8058 33.4852 41.8141 33.5084 41.8208 33.5332C41.8241 33.5415 41.8274 33.5498 41.829 33.5581C41.8373 33.5846 41.8472 33.6111 41.8555 33.6376C41.8555 33.6426 41.8588 33.6475 41.8605 33.6509C41.8837 33.7171 41.9052 33.7834 41.9284 33.8513C41.9317 33.8629 41.9367 33.8762 41.94 33.8878C41.9466 33.906 41.9532 33.9259 41.9599 33.9441C41.9814 34.0071 42.0029 34.0717 42.0244 34.1347C42.0277 34.1463 42.0327 34.1579 42.036 34.1695C42.0427 34.191 42.0509 34.2125 42.0576 34.2341C42.0609 34.244 42.0642 34.254 42.0675 34.2656C42.0758 34.2871 42.0824 34.3086 42.0907 34.3318C42.094 34.3434 42.099 34.355 42.1023 34.3666C42.1089 34.3865 42.1155 34.4081 42.1238 34.4279C42.1288 34.4395 42.1321 34.4511 42.137 34.4644C42.1437 34.4843 42.152 34.5058 42.1586 34.5257C42.1619 34.5373 42.1669 34.5489 42.1702 34.5605C42.1768 34.5804 42.1834 34.6003 42.1917 34.6201C42.1967 34.6334 42.2016 34.645 42.2049 34.6582C42.2116 34.6765 42.2182 34.6964 42.2248 34.7146C42.2298 34.7278 42.2331 34.7411 42.2381 34.7543C42.2447 34.7742 42.2513 34.7925 42.2579 34.8123C43.5844 38.5585 45.3679 42.0645 50.9884 38.3498L51 38.3481ZM32.7508 10.4164C32.9561 12.0866 34.4747 13.2729 36.1423 13.0674C37.8116 12.862 38.9973 11.3426 38.7919 9.67414C38.5866 8.004 37.068 6.81767 35.4004 7.02313C33.7312 7.22858 32.5455 8.74794 32.7508 10.4164ZM32.7508 10.4164C32.9561 12.0866 34.4747 13.2729 36.1423 13.0674C37.8116 12.862 38.9973 11.3426 38.7919 9.67414C38.5866 8.004 37.068 6.81767 35.4004 7.02313C33.7312 7.22858 32.5455 8.74794 32.7508 10.4164ZM39.456 23.4014C38.6213 23.5041 38.0285 24.263 38.1312 25.098C38.2338 25.9331 38.9923 26.5263 39.8269 26.4235C40.6615 26.3208 41.2544 25.5603 41.1517 24.7269C41.049 23.8918 40.2906 23.2987 39.456 23.4014ZM39.456 23.4014C38.6213 23.5041 38.0285 24.263 38.1312 25.098C38.2338 25.9331 38.9923 26.5263 39.8269 26.4235C40.6615 26.3208 41.2544 25.5603 41.1517 24.7269C41.049 23.8918 40.2906 23.2987 39.456 23.4014Z" fill="#8A01D3"/>
</svg>
